<svg width="32" height="32" viewBox="0 0 32 32" fill="none" xmlns="http://www.w3.org/2000/svg">
<path d="M10.925 17.3H3.325L0 24.425H7.6L10.925 17.3Z" fill="url(#a)"/>
<path d="M21.85 24.425H14.25V19.2C14.25 17.3 12.6667 16.5083 11.875 16.35H3.8L4.275 14.925H11.875C14.535 15.305 15.5167 17.3 15.675 18.25C15.675 15.59 18.2083 14.925 19.475 14.925H26.125L21.85 24.425Z" fill="url(#b)"/>
<path d="M28.025 11.125H20.425L23.275 4H31.35L28.025 11.125Z" fill="url(#c)"/>
<path d="M9.025 4L4.75 13.5H11.4C13.68 13.5 15.2 10.9667 15.675 9.7C16.055 12.36 18.3667 13.3417 19.475 13.5H27.075L27.55 12.55H27.075H20.9C17.86 12.55 16.7833 10.3333 16.625 9.225V4H9.025Z" fill="url(#d)"/>
<defs>
<linearGradient id="a" x1="15.675" y1="4" x2="15.675" y2="24.425" gradientUnits="userSpaceOnUse"><stop stop-color="#00F2FE"/><stop offset="0.385" stop-color="#00FFDD"/><stop offset="1" stop-color="#32F6FF"/></linearGradient>
<linearGradient id="b" x1="15.675" y1="4" x2="15.675" y2="24.425" gradientUnits="userSpaceOnUse"><stop stop-color="#00F2FE"/><stop offset="0.385" stop-color="#00FFDD"/><stop offset="1" stop-color="#32F6FF"/></linearGradient>
<linearGradient id="c" x1="15.675" y1="4" x2="15.675" y2="24.425" gradientUnits="userSpaceOnUse"><stop stop-color="#00F2FE"/><stop offset="0.385" stop-color="#00FFDD"/><stop offset="1" stop-color="#32F6FF"/></linearGradient>
<linearGradient id="d" x1="15.675" y1="4" x2="15.675" y2="24.425" gradientUnits="userSpaceOnUse"><stop stop-color="#00F2FE"/><stop offset="0.385" stop-color="#00FFDD"/><stop offset="1" stop-color="#32F6FF"/></linearGradient>
</defs>
</svg>
