<svg width="695" height="541" viewBox="0 0 695 541" fill="none" xmlns="http://www.w3.org/2000/svg">
<path d="M350.164 465.5C356.964 519.1 400.997 536.833 422.164 539L565.664 540.5C592.864 541.3 613.33 521.5 620.164 511.5C644.812 481.889 693.924 422.987 694.656 422.501C693.96 422.193 649.488 377.489 627.164 355C572.764 295 518.164 323.667 497.664 345.5L425.164 422.5L595.164 472.695L604.664 475.5C597.064 485.9 582.164 490.833 575.664 492H454.664C414.264 492.8 402.83 458 402.164 440.5V153C474.964 89.4 499.164 24.5 502.164 0L402.164 89V0L350.164 82.5V465.5Z" fill="#00F2FE"/>
<path d="M425.164 422.5L478.664 445C509.997 455.463 577.164 475.651 595.164 472.695L425.164 422.5Z" fill="#00F2FE"/>
<path d="M592.164 254L559.164 287C558.364 287.8 536.83 265.333 526.164 254L559.164 221L592.164 254Z" fill="#00F2FE"/>
<path d="M321.664 157L274.664 196V408.5C268.164 453.833 217.864 531.7 68.6639 480.5L129.664 419.5H56.1639C63.1639 376.833 105.064 283.1 216.664 249.5C157.497 243 31.3639 272.1 0.163886 440.5C-0.669448 445.833 1.26389 458.9 15.6639 468.5C26.7507 475.891 88.484 540.189 166.164 539.533C182.373 539.397 199.277 536.432 216.56 529.531C250.922 515.812 286.783 486.536 321.664 433V157Z" fill="#00F2FE"/>
<path d="M216.56 529.531C250.922 515.812 286.783 486.536 321.664 433C316.152 458.648 287.56 507.342 216.56 529.531Z" fill="#00F2FE"/>
</svg>
