<svg width="427" height="250" viewBox="0 0 427 250" fill="none" xmlns="http://www.w3.org/2000/svg">
<path d="M265.538 155.083C263.121 160.475 259.96 165.496 256.055 170.145C251.964 174.607 247.315 178.326 242.295 181.302C241.923 182.231 241.737 182.975 241.551 183.533C241.365 184.277 240.993 184.835 240.621 185.764C247.315 182.417 253.266 177.769 258.286 172.19C263.307 166.426 267.212 159.917 269.815 153.037C268.142 153.781 267.212 154.339 265.538 155.083Z" fill="#40F4FF"/>
<path fill-rule="evenodd" clip-rule="evenodd" d="M240.62 185.951C240.496 185.827 240.434 185.765 240.434 185.765C240.805 184.835 240.991 184.092 241.363 183.534C241.487 182.914 241.673 182.17 241.921 181.302C242.045 181.302 242.107 181.24 242.107 181.116C247.314 178.141 251.777 174.422 255.867 169.959C259.772 165.497 262.934 160.476 265.351 154.897C265.351 154.897 265.413 154.897 265.537 154.897C267.21 154.154 267.954 153.596 269.628 152.666C269.752 152.666 269.814 152.728 269.814 152.852C269.938 152.852 270 152.914 270 153.038C267.396 160.104 263.491 166.612 258.471 172.191C253.45 177.955 247.5 182.604 240.805 185.951C240.805 185.951 240.744 185.951 240.62 185.951ZM242.479 181.488C242.231 182.356 241.983 183.1 241.735 183.72C241.611 184.092 241.425 184.588 241.177 185.207C247.5 181.86 253.264 177.397 258.099 172.005C262.934 166.426 266.653 160.29 269.256 153.41C267.954 154.154 267.21 154.526 265.723 155.269C263.306 160.662 260.144 165.683 256.239 170.145C252.148 174.608 247.5 178.513 242.479 181.488Z" fill="#40F4FF"/>
<path d="M239.132 183.161C238.636 184.525 238.017 185.95 237.273 187.438C236.777 187.562 236.281 187.748 235.785 187.996C236.529 186.632 237.211 185.207 237.831 183.719C238.203 183.471 238.636 183.285 239.132 183.161Z" fill="#40F4FF"/>
<path fill-rule="evenodd" clip-rule="evenodd" d="M235.414 188.368L235.6 187.81C236.344 186.446 237.026 185.083 237.645 183.719V183.533C238.141 183.285 238.575 183.099 238.947 182.975L239.505 182.604L239.319 183.161C238.823 184.649 238.203 186.075 237.46 187.438V187.624C236.964 187.748 236.468 187.934 235.972 188.182L235.414 188.368ZM238.017 183.905C237.521 185.145 236.964 186.323 236.344 187.438C236.592 187.314 236.84 187.19 237.088 187.066C237.707 185.951 238.265 184.773 238.761 183.533C238.513 183.657 238.265 183.781 238.017 183.905Z" fill="#40F4FF"/>
<path d="M234.485 185.207C233.865 186.571 233.183 187.934 232.439 189.298C231.943 189.422 231.385 189.608 230.766 189.856C231.633 188.492 232.439 187.129 233.183 185.765C233.679 185.517 234.113 185.331 234.485 185.207Z" fill="#40F4FF"/>
<path fill-rule="evenodd" clip-rule="evenodd" d="M230.393 190.228L230.578 189.67C231.446 188.306 232.252 186.942 232.996 185.579C233.492 185.331 233.988 185.145 234.483 185.021L235.041 184.835L234.669 185.207C234.05 186.694 233.368 188.12 232.624 189.484H232.438C231.942 189.608 231.446 189.794 230.95 190.042L230.393 190.228ZM233.368 185.951C232.748 187.066 232.066 188.182 231.322 189.298C231.694 189.298 232.004 189.236 232.252 189.112C232.872 187.996 233.492 186.818 234.112 185.579C233.864 185.703 233.616 185.827 233.368 185.951Z" fill="#40F4FF"/>
<path d="M229.835 186.881C228.967 188.121 228.099 189.422 227.232 190.786C226.736 190.91 226.24 191.034 225.744 191.158C226.612 189.794 227.48 188.492 228.347 187.253C228.843 187.129 229.339 187.005 229.835 186.881Z" fill="#40F4FF"/>
<path fill-rule="evenodd" clip-rule="evenodd" d="M225.186 191.529L225.557 190.972C226.425 189.732 227.293 188.43 228.161 187.067H228.347C228.719 186.943 229.152 186.819 229.648 186.695L230.206 186.509L230.02 186.881C229.153 188.244 228.285 189.546 227.417 190.786V190.972H227.231C226.735 191.096 226.239 191.22 225.743 191.343L225.186 191.529ZM228.533 187.439C227.789 188.554 227.045 189.67 226.301 190.786C226.549 190.786 226.859 190.724 227.231 190.6C227.975 189.484 228.657 188.368 229.276 187.253C229.029 187.377 228.781 187.439 228.533 187.439Z" fill="#40F4FF"/>
<path d="M258.844 171.447C262.191 167.542 264.98 163.265 267.212 158.802C269.443 154.153 271.117 149.319 272.232 144.298C272.604 144.918 272.976 145.6 273.348 146.343C271.302 155.455 267.026 163.823 261.261 171.075C260.393 171.199 259.588 171.323 258.844 171.447Z" fill="#40F4FF"/>
<path fill-rule="evenodd" clip-rule="evenodd" d="M258.844 171.633C258.72 171.633 258.658 171.633 258.658 171.633C258.658 171.509 258.658 171.385 258.658 171.261C262.005 167.356 264.795 163.265 267.026 158.616C269.257 154.154 270.931 149.319 271.861 144.298C271.985 144.174 272.109 144.112 272.233 144.112C272.233 144.112 272.295 144.112 272.419 144.112C272.79 144.856 273.162 145.6 273.534 146.344C271.489 155.455 267.212 164.009 261.447 171.261C261.323 171.261 261.261 171.261 261.261 171.261C260.518 171.385 259.712 171.509 258.844 171.633ZM272.233 144.856C271.303 149.691 269.629 154.34 267.398 158.802C265.352 163.265 262.563 167.356 259.402 171.075C260.022 171.075 260.58 171.013 261.076 170.889C266.84 163.637 270.931 155.269 272.976 146.344C272.728 145.848 272.481 145.352 272.233 144.856Z" fill="#40F4FF"/>
<path d="M235.971 80.145C241.55 82.3764 246.57 85.7235 251.033 89.6285C255.496 93.5335 259.401 98.3682 262.376 103.389C263.306 103.761 263.864 103.947 264.608 104.133C265.351 104.319 265.909 104.69 266.839 104.876C263.306 98.3682 258.657 92.2318 253.079 87.3971C247.5 82.3764 240.992 78.4715 233.926 75.8682C234.856 77.5417 235.227 78.4715 235.971 80.145Z" fill="#40F4FF"/>
<path fill-rule="evenodd" clip-rule="evenodd" d="M266.839 105.248C266.839 105.248 266.777 105.248 266.653 105.248C265.91 104.876 265.166 104.504 264.608 104.318C263.988 104.194 263.244 103.946 262.377 103.574C262.253 103.574 262.191 103.574 262.191 103.574C259.215 98.3676 255.311 93.7188 250.848 89.8139C246.385 85.9089 241.364 82.7478 235.972 80.3304C235.848 80.3304 235.786 80.2684 235.786 80.1444C235.042 78.4709 234.67 77.7271 233.74 76.0535C233.74 75.9296 233.74 75.8056 233.74 75.6816C233.864 75.6816 233.988 75.6816 234.112 75.6816C241.178 78.2849 247.687 82.1899 253.265 87.2106C259.029 92.2312 263.492 98.1816 267.025 104.876C267.025 105 267.025 105.062 267.025 105.062C266.901 105.186 266.839 105.248 266.839 105.248ZM262.563 103.202C263.43 103.45 264.112 103.698 264.608 103.946C265.104 104.07 265.662 104.256 266.282 104.504C262.934 98.1816 258.472 92.4172 252.893 87.5825C247.501 82.7478 241.364 78.8428 234.484 76.4254C235.228 77.5411 235.6 78.4709 236.158 79.9585C241.736 82.3759 246.757 85.537 251.22 89.442C255.682 93.5329 259.587 98.1816 262.563 103.202Z" fill="#40F4FF"/>
<path d="M264.051 106.55C265.538 107.046 266.964 107.666 268.328 108.409C268.576 108.781 268.824 109.215 269.071 109.711C267.584 109.091 266.158 108.471 264.795 107.851C264.547 107.356 264.299 106.922 264.051 106.55Z" fill="#40F4FF"/>
<path fill-rule="evenodd" clip-rule="evenodd" d="M269.442 110.269L268.884 110.083C267.521 109.339 266.095 108.657 264.607 108.038C264.36 107.542 264.112 107.046 263.864 106.55L263.678 105.992L264.236 106.364C265.599 106.86 267.025 107.418 268.512 108.038V108.224C268.76 108.719 269.008 109.215 269.256 109.711L269.442 110.269ZM264.979 107.666C266.095 108.162 267.273 108.719 268.512 109.339C268.388 108.967 268.265 108.657 268.141 108.41C266.901 107.914 265.723 107.418 264.607 106.922C264.731 107.17 264.855 107.418 264.979 107.666Z" fill="#40F4FF"/>
<path d="M266.281 111.013C267.645 111.756 269.009 112.5 270.372 113.244C270.496 113.74 270.62 114.236 270.744 114.732C269.38 113.988 268.079 113.244 266.839 112.5C266.591 112.004 266.405 111.509 266.281 111.013Z" fill="#40F4FF"/>
<path fill-rule="evenodd" clip-rule="evenodd" d="M271.115 115.289L270.743 115.103C269.38 114.236 268.016 113.43 266.652 112.686H266.466C266.342 112.19 266.156 111.694 265.909 111.198L265.723 110.641L266.28 110.827C267.644 111.57 269.008 112.314 270.371 113.058H270.557V113.244C270.681 113.616 270.805 114.112 270.929 114.732L271.115 115.289ZM267.024 112.314C268.14 112.934 269.256 113.554 270.371 114.174C270.247 113.926 270.185 113.678 270.185 113.43C268.946 112.686 267.768 112.066 266.652 111.57C266.776 111.818 266.9 112.066 267.024 112.314Z" fill="#40F4FF"/>
<path d="M267.955 115.848C269.195 116.591 270.434 117.459 271.674 118.451C271.798 118.947 271.922 119.443 272.046 119.939C270.806 119.071 269.567 118.203 268.327 117.335C268.203 116.839 268.079 116.344 267.955 115.848Z" fill="#40F4FF"/>
<path fill-rule="evenodd" clip-rule="evenodd" d="M272.417 120.496L272.045 120.124C270.806 119.256 269.504 118.388 268.14 117.52V117.335C268.016 116.963 267.83 116.467 267.582 115.847L267.396 115.289L267.954 115.661C269.318 116.405 270.62 117.273 271.859 118.264H272.045C272.169 118.884 272.293 119.442 272.417 119.938V120.496ZM268.326 117.149C269.442 117.892 270.558 118.636 271.673 119.38C271.549 119.132 271.487 118.822 271.487 118.45C270.372 117.706 269.256 117.025 268.14 116.405C268.264 116.653 268.326 116.901 268.326 117.149Z" fill="#40F4FF"/>
<path d="M252.522 86.8391C248.617 83.492 244.34 80.7027 239.691 78.4713C235.228 76.054 230.394 74.5664 225.373 73.4507C225.993 73.0788 226.675 72.7069 227.419 72.335C236.344 74.3804 244.898 78.6573 252.15 84.4217C252.274 85.1655 252.398 85.9713 252.522 86.8391Z" fill="#40F4FF"/>
<path fill-rule="evenodd" clip-rule="evenodd" d="M252.521 87.0254C252.397 87.0254 252.335 87.0254 252.335 87.0254C248.43 83.6783 244.153 80.8891 239.69 78.6577C235.041 76.4263 230.207 74.7527 225.186 73.637C225.186 73.637 225.124 73.575 225 73.4511C225 73.3271 225.062 73.2651 225.186 73.2651C225.806 72.8932 226.488 72.5213 227.231 72.1494C227.355 72.1494 227.417 72.1494 227.417 72.1494C236.529 74.1949 245.083 78.4717 252.149 84.2362C252.273 84.2362 252.335 84.2982 252.335 84.4221C252.459 85.1659 252.583 85.9097 252.707 86.6536C252.707 86.7775 252.645 86.9015 252.521 87.0254ZM225.93 73.4511C230.764 74.3808 235.413 76.0544 239.876 78.0998C244.339 80.3312 248.43 83.1205 252.149 86.2816C252.025 85.6618 251.901 85.104 251.777 84.6081C244.711 78.8436 236.343 74.7527 227.417 72.5213C226.922 72.7693 226.426 73.0792 225.93 73.4511Z" fill="#40F4FF"/>
<path d="M161.034 109.525C163.452 104.132 166.799 99.1114 170.704 94.6486C174.609 90.1857 179.257 86.2808 184.464 83.3056C184.65 82.3758 184.836 81.632 185.208 81.0742C185.394 80.3304 185.58 79.7725 185.952 78.8428C179.257 82.1899 173.307 87.0246 168.286 92.6031C163.452 98.1816 159.547 104.69 156.943 111.756C158.617 110.826 159.547 110.268 161.034 109.525Z" fill="#40F4FF"/>
<path fill-rule="evenodd" clip-rule="evenodd" d="M156.942 111.942C156.942 111.942 156.88 111.88 156.756 111.756C156.756 111.756 156.756 111.694 156.756 111.57C159.359 104.504 163.078 97.9961 168.285 92.4176C173.305 86.6531 179.256 82.0043 185.95 78.6572C185.95 78.6572 186.012 78.6572 186.136 78.6572C186.26 78.7812 186.26 78.9052 186.136 79.0291C185.764 79.7729 185.578 80.5167 185.392 81.0746C185.144 81.6944 184.896 82.4382 184.648 83.306C184.648 83.306 184.648 83.368 184.648 83.4919C179.442 86.4671 174.793 90.1861 170.888 94.649C166.983 99.2977 163.636 104.318 161.405 109.711C161.281 109.711 161.219 109.773 161.219 109.897C159.545 110.641 158.615 111.013 157.128 111.942C157.004 111.942 156.942 111.942 156.942 111.942ZM185.578 79.401C179.07 82.7481 173.305 87.2109 168.471 92.6035C163.636 98.182 159.917 104.318 157.314 111.199C158.615 110.455 159.545 110.083 160.847 109.339C163.264 103.946 166.611 98.9258 170.516 94.463C174.421 90.0002 179.07 86.0952 184.276 83.12C184.524 82.2523 184.772 81.5085 185.02 80.8886C185.144 80.5167 185.33 80.0209 185.578 79.401Z" fill="#40F4FF"/>
<path d="M187.438 81.633C188.057 80.1454 188.677 78.7197 189.297 77.3561C189.793 77.1082 190.289 76.8602 190.785 76.6123C190.041 77.9759 189.421 79.4016 188.925 80.8892C188.429 81.1371 187.933 81.385 187.438 81.633Z" fill="#40F4FF"/>
<path fill-rule="evenodd" clip-rule="evenodd" d="M187.066 82.0047L187.252 81.4468C187.872 80.0832 188.492 78.6576 189.112 77.17L189.298 76.984C189.67 76.8601 190.166 76.6741 190.785 76.4262L191.343 76.2402L190.971 76.7981C190.352 78.1617 189.732 79.5254 189.112 80.889V81.0749H188.926C188.43 81.3229 187.996 81.5708 187.624 81.8187L187.066 82.0047ZM189.484 77.3559C188.864 78.5956 188.368 79.7733 187.996 80.889C188.244 80.889 188.492 80.827 188.74 80.703C189.236 79.4634 189.732 78.2237 190.228 76.984C189.98 77.108 189.732 77.232 189.484 77.3559Z" fill="#40F4FF"/>
<path d="M192.088 79.4013C192.832 78.0377 193.575 76.674 194.319 75.3104C194.815 75.1864 195.311 75.0624 195.807 74.9385C194.939 76.1781 194.195 77.4798 193.575 78.8434C193.08 79.0914 192.584 79.2773 192.088 79.4013Z" fill="#40F4FF"/>
<path fill-rule="evenodd" clip-rule="evenodd" d="M191.715 79.9594L191.901 79.4015C192.521 78.0379 193.264 76.6742 194.132 75.3106V75.1247H194.318C194.69 75.0007 195.186 74.8147 195.806 74.5668L196.364 74.3809L195.992 74.9387C195.248 76.3023 194.504 77.666 193.76 79.0296L193.574 79.2156C193.078 79.3395 192.645 79.4635 192.273 79.5875L191.715 79.9594ZM194.504 75.6825C193.76 76.7982 193.14 77.9759 192.645 79.2156C192.893 79.0916 193.14 78.9676 193.388 78.8437C194.008 77.728 194.628 76.6123 195.248 75.4966C195 75.4966 194.752 75.5585 194.504 75.6825Z" fill="#40F4FF"/>
<path d="M196.922 77.7276C197.666 76.488 198.471 75.1863 199.339 73.8227C199.959 73.6987 200.517 73.6367 201.013 73.6367C200.021 74.8764 199.153 76.1161 198.409 77.3557C197.914 77.4797 197.418 77.6037 196.922 77.7276Z" fill="#40F4FF"/>
<path fill-rule="evenodd" clip-rule="evenodd" d="M196.363 78.0994L196.735 77.7275C197.479 76.3638 198.285 75.0622 199.153 73.8225L199.338 73.6366C199.958 73.5126 200.516 73.3886 201.012 73.2646H201.57L201.198 73.6366C200.206 74.8762 199.339 76.1779 198.595 77.5415H198.409C197.913 77.6655 197.417 77.8514 196.921 78.0994H196.363ZM199.524 74.0085C198.781 75.0002 198.099 76.0539 197.479 77.1696C197.727 77.1696 197.975 77.1076 198.223 76.9837C198.967 75.868 199.71 74.8142 200.454 73.8225C200.206 73.8225 199.896 73.8845 199.524 74.0085Z" fill="#40F4FF"/>
<path d="M167.728 93.1611C164.567 97.0661 161.592 101.343 159.361 105.992C157.129 110.455 155.456 115.289 154.526 120.31C154.154 119.69 153.782 119.008 153.41 118.264C155.456 109.339 159.732 100.785 165.497 93.533C166.241 93.4091 166.985 93.2851 167.728 93.1611Z" fill="#40F4FF"/>
<path fill-rule="evenodd" clip-rule="evenodd" d="M154.525 120.496C154.401 120.496 154.339 120.496 154.339 120.496C153.968 119.752 153.596 119.009 153.224 118.265C153.1 118.265 153.1 118.265 153.224 118.265C155.269 109.153 159.36 100.6 165.311 93.3475C165.311 93.3475 165.373 93.3475 165.497 93.3475C166.116 93.2235 166.86 93.0996 167.728 92.9756C167.852 92.9756 167.914 93.0376 167.914 93.1615C168.038 93.1615 168.038 93.2235 167.914 93.3475C164.567 97.2525 161.778 101.529 159.546 105.992C157.315 110.641 155.641 115.476 154.711 120.31C154.711 120.434 154.649 120.496 154.525 120.496ZM153.596 118.265C153.844 118.761 154.092 119.257 154.339 119.752C155.455 114.918 156.943 110.269 159.174 105.806C161.406 101.343 164.009 97.2525 167.17 93.5334C166.674 93.6574 166.116 93.7194 165.497 93.7194C159.918 100.971 155.641 109.339 153.596 118.265Z" fill="#40F4FF"/>
<path d="M190.6 184.463C185.207 182.231 180.001 178.884 175.538 174.979C171.075 171.074 167.356 166.426 164.195 161.219C163.451 161.033 162.707 160.661 162.149 160.475C161.406 160.289 160.662 160.103 159.918 159.731C163.265 166.24 167.914 172.376 173.492 177.211C179.071 182.231 185.579 186.136 192.645 188.74C191.901 187.066 191.344 186.136 190.6 184.463Z" fill="#40F4FF"/>
<path fill-rule="evenodd" clip-rule="evenodd" d="M192.645 188.926C185.579 186.323 179.07 182.418 173.306 177.397C167.727 172.377 163.079 166.426 159.732 159.732C159.608 159.608 159.608 159.546 159.732 159.546C159.732 159.422 159.794 159.422 159.918 159.546C160.847 159.732 161.591 160.104 162.149 160.29C162.645 160.538 163.389 160.786 164.38 161.034C167.542 166.24 171.261 170.889 175.723 174.794C180.186 178.699 185.207 182.046 190.785 184.278C190.785 184.401 190.785 184.463 190.785 184.463C191.529 186.137 192.087 187.067 192.831 188.554C192.955 188.678 192.955 188.802 192.831 188.926C192.831 188.926 192.769 188.926 192.645 188.926ZM160.289 160.104C163.823 166.612 168.285 172.191 173.678 177.025C179.256 182.046 185.393 185.765 192.273 188.368C191.529 187.067 191.157 186.137 190.413 184.649C185.021 182.418 180 179.071 175.537 175.166C170.889 171.075 167.17 166.612 164.194 161.406C163.203 161.158 162.459 160.91 161.963 160.662C161.467 160.538 160.909 160.352 160.289 160.104Z" fill="#40F4FF"/>
<path d="M162.52 158.058C161.157 157.562 159.731 157.004 158.243 156.384C158.119 155.888 157.933 155.392 157.686 154.896C159.049 155.516 160.475 156.136 161.962 156.756C162.086 157.252 162.272 157.686 162.52 158.058Z" fill="#40F4FF"/>
<path fill-rule="evenodd" clip-rule="evenodd" d="M163.079 158.616L162.522 158.43C161.034 157.81 159.608 157.19 158.245 156.57H158.059V156.384C157.811 155.888 157.625 155.393 157.501 154.897L157.129 154.339L157.687 154.711C159.174 155.331 160.6 155.95 161.964 156.57H162.15C162.398 157.19 162.583 157.686 162.707 158.058L163.079 158.616ZM158.617 156.198C159.732 156.694 160.91 157.19 162.15 157.686C162.026 157.438 161.902 157.19 161.778 156.942C160.662 156.446 159.484 155.888 158.245 155.269C158.369 155.641 158.493 155.95 158.617 156.198Z" fill="#40F4FF"/>
<path d="M160.475 153.595C159.111 152.851 157.748 152.107 156.384 151.364C156.26 150.868 156.074 150.372 155.826 149.876C157.19 150.62 158.553 151.364 159.917 152.107C160.041 152.603 160.227 153.099 160.475 153.595Z" fill="#40F4FF"/>
<path fill-rule="evenodd" clip-rule="evenodd" d="M160.848 153.967L160.29 153.781C158.926 153.037 157.563 152.294 156.199 151.55V151.364C156.075 150.992 155.889 150.496 155.641 149.876L155.455 149.318L156.013 149.69C157.377 150.434 158.74 151.178 160.104 151.922V152.108C160.352 152.48 160.538 152.913 160.662 153.409L160.848 153.967ZM156.571 151.178C157.686 151.922 158.802 152.541 159.918 153.037C159.918 152.789 159.856 152.541 159.732 152.294C158.492 151.674 157.315 151.054 156.199 150.434C156.323 150.682 156.447 150.93 156.571 151.178Z" fill="#40F4FF"/>
<path d="M158.802 148.761C157.439 148.017 156.137 147.149 154.897 146.158C154.773 145.662 154.649 145.166 154.525 144.67C155.765 145.662 157.067 146.529 158.43 147.273C158.554 147.769 158.678 148.265 158.802 148.761Z" fill="#40F4FF"/>
<path fill-rule="evenodd" clip-rule="evenodd" d="M159.173 149.319L158.615 148.947C157.375 148.203 156.074 147.335 154.71 146.344C154.586 145.724 154.462 145.166 154.338 144.67L154.152 144.112L154.71 144.484C155.95 145.352 157.19 146.22 158.429 147.088H158.615V147.273C158.739 147.645 158.863 148.141 158.987 148.761L159.173 149.319ZM155.082 146.158C156.198 146.902 157.313 147.583 158.429 148.203C158.305 147.955 158.243 147.707 158.243 147.459C157.128 146.716 156.012 145.972 154.896 145.228C155.02 145.476 155.082 145.786 155.082 146.158Z" fill="#40F4FF"/>
<path d="M174.236 177.769C178.141 181.116 182.418 184.091 186.881 186.322C191.53 188.554 196.364 190.227 201.385 191.157C200.641 191.529 199.959 191.901 199.34 192.273C190.228 190.227 181.86 185.95 174.608 180.186C174.484 179.442 174.36 178.636 174.236 177.769Z" fill="#40F4FF"/>
<path fill-rule="evenodd" clip-rule="evenodd" d="M199.34 192.459C199.216 192.459 199.154 192.459 199.154 192.459C190.228 190.414 181.675 186.137 174.423 180.372C174.423 180.372 174.423 180.31 174.423 180.186C174.299 179.443 174.175 178.699 174.051 177.955C174.051 177.831 174.051 177.707 174.051 177.583C174.175 177.583 174.299 177.645 174.423 177.769C178.142 180.93 182.419 183.719 187.067 185.951C191.53 188.368 196.365 189.856 201.386 190.971C201.509 190.971 201.571 191.033 201.571 191.157C201.571 191.281 201.509 191.343 201.386 191.343C200.766 191.715 200.084 192.087 199.34 192.459ZM174.795 180C181.861 185.765 190.414 190.042 199.154 192.087C199.774 191.839 200.27 191.591 200.642 191.343C195.993 190.228 191.158 188.554 186.881 186.509C182.419 184.277 178.328 181.674 174.609 178.513C174.609 179.009 174.671 179.505 174.795 180Z" fill="#40F4FF"/>
<path d="M276.88 174.794L276.322 174.422C279.112 170.331 281.529 165.868 283.388 161.405C285.248 156.757 286.736 151.922 287.665 147.087C288.595 142.252 289.153 137.232 289.153 132.397C289.153 127.376 288.595 122.356 287.665 117.521C286.736 112.686 285.248 107.852 283.388 103.389C281.529 98.7401 279.112 94.2773 276.322 90.1863L276.88 89.8145C279.669 94.0913 282.087 98.5541 283.946 103.017C285.806 107.666 287.293 112.5 288.223 117.335C289.153 122.356 289.711 127.376 289.711 132.397C289.711 137.232 289.153 142.252 288.223 147.273C287.293 152.108 285.806 156.943 283.946 161.591C282.087 166.24 279.669 170.517 276.88 174.794Z" fill="#40F4FF"/>
<path d="M149.875 174.794C147.086 170.517 144.669 166.24 142.809 161.591C140.764 156.943 139.462 152.108 138.347 147.273C137.417 142.252 137.045 137.232 137.045 132.397C137.045 127.376 137.417 122.356 138.347 117.335C139.462 112.5 140.764 107.666 142.809 103.017C144.669 98.5541 147.086 94.0913 149.875 89.8145L150.247 90.1863C147.644 94.2773 145.227 98.7401 143.367 103.389C141.508 107.852 140.02 112.686 139.09 117.521C138.161 122.356 137.603 127.376 137.603 132.397C137.603 137.232 138.161 142.252 139.09 147.087C140.02 151.922 141.508 156.757 143.367 161.405C145.227 165.868 147.644 170.331 150.247 174.422L149.875 174.794Z" fill="#40F4FF"/>
<path d="M292.129 42.0246H314.815V39.2354H292.129V42.0246Z" fill="#40F4FF"/>
<path d="M338.245 39.2354H315.559V42.0246H338.245V40.537V39.2354Z" fill="#40F4FF"/>
<path d="M338.988 42.0246H364.092L361.86 39.2354H338.988V42.0246Z" fill="#163C5B"/>
<path fill-rule="evenodd" clip-rule="evenodd" d="M370.599 44.4427C370.475 44.5667 370.351 44.6286 370.227 44.6286H339.173L337.128 46.6741C337.128 46.6741 337.066 46.6741 336.942 46.6741H307.376C307.252 46.6741 307.128 46.6741 307.004 46.6741L305.144 44.6286H289.338C289.338 44.6286 289.276 44.5667 289.152 44.4427C289.152 44.4427 289.152 44.3807 289.152 44.2567V36.8187C289.152 36.6948 289.152 36.6328 289.152 36.6328L291.198 34.5873C291.322 34.4633 291.384 34.4014 291.384 34.4014H346.983C346.983 34.4014 347.045 34.4633 347.169 34.5873L349.214 36.4468H364.09C364.214 36.4468 364.276 36.5088 364.276 36.6328L370.599 44.0708C370.599 44.1948 370.599 44.3187 370.599 44.4427ZM338.243 44.6286H306.074L307.376 46.1162H336.756L338.243 44.6286ZM369.669 43.8848L363.904 37.0047H289.71V43.8848H369.669Z" fill="#40F4FF"/>
<path d="M207.706 129.979H207.148V126.446C207.148 126.26 207.148 126.074 207.334 126.074H210.867V126.632H207.706V129.979Z" fill="#40F4FF"/>
<path d="M210.867 138.533H207.334C207.148 138.533 207.148 138.347 207.148 138.347V134.628H207.706V137.975H210.867V138.533Z" fill="#40F4FF"/>
<path d="M219.608 129.979H219.05V126.632H215.703V126.074H219.236C219.422 126.074 219.608 126.26 219.608 126.446V129.979Z" fill="#40F4FF"/>
<path d="M219.236 138.533H215.703V137.975H219.05V134.628H219.608V138.347C219.608 138.347 219.422 138.533 219.236 138.533Z" fill="#40F4FF"/>
<path d="M216.818 132.583H209.752V132.025H216.818V132.583Z" fill="#40F4FF"/>
<path d="M213.657 135.744H213.1V128.864H213.657V135.744Z" fill="#40F4FF"/>
<path d="M389.008 132.583H303.285V132.025H389.008V132.583Z" fill="#40F4FF"/>
<path d="M389.38 134.628H388.822V129.979H389.38V134.628Z" fill="#40F4FF"/>
<path d="M375.062 134.628H374.504V129.979H375.062V134.628Z" fill="#40F4FF"/>
<path d="M360.743 134.628H360.186V129.979H360.743V134.628Z" fill="#40F4FF"/>
<path d="M346.425 134.628H345.867V129.979H346.425V134.628Z" fill="#40F4FF"/>
<path d="M332.109 134.628H331.551V129.979H332.109V134.628Z" fill="#40F4FF"/>
<path d="M317.79 134.628H317.232V129.979H317.79V134.628Z" fill="#40F4FF"/>
<path d="M303.472 134.628H302.914V129.979H303.472V134.628Z" fill="#40F4FF"/>
<path d="M123.472 132.583H37.5625V132.025H123.472V132.583Z" fill="#40F4FF"/>
<path d="M37.9348 134.628H37.377V129.979H37.9348V134.628Z" fill="#40F4FF"/>
<path d="M52.2531 134.628H51.6953V129.979H52.2531V134.628Z" fill="#40F4FF"/>
<path d="M66.5696 134.628H66.0117V129.979H66.5696V134.628Z" fill="#40F4FF"/>
<path d="M80.8883 134.628H80.1445V129.979H80.8883V134.628Z" fill="#40F4FF"/>
<path d="M95.2067 134.628H94.4629V129.979H95.2067V134.628Z" fill="#40F4FF"/>
<path d="M109.525 134.628H108.781V129.979H109.525V134.628Z" fill="#40F4FF"/>
<path d="M123.843 134.628H123.1V129.979H123.843V134.628Z" fill="#40F4FF"/>
<path d="M213.657 67.3147H213.1V47.418H213.657V67.3147Z" fill="#40F4FF"/>
<path d="M213.657 217.191H213.1V197.294H213.657V217.191Z" fill="#40F4FF"/>
<path fill-rule="evenodd" clip-rule="evenodd" d="M241.364 176.839C241.24 176.839 241.116 176.777 240.992 176.653L236.715 170.145C236.715 170.021 236.715 169.897 236.715 169.773C236.715 169.773 236.777 169.711 236.901 169.587C242.479 166.054 247.314 161.405 250.661 155.827C250.785 155.703 250.847 155.641 250.847 155.641C250.971 155.641 251.095 155.641 251.219 155.641L257.913 159.918C257.913 160.103 258.099 160.289 257.913 160.289C253.822 166.984 248.058 172.748 241.364 176.839ZM237.459 169.959L241.364 176.095C247.686 172.004 253.264 166.612 257.169 160.289L251.033 156.384C247.686 161.777 242.851 166.426 237.459 169.959ZM259.773 157.128C259.649 157.128 259.587 157.066 259.587 156.942L252.521 153.223C252.335 153.223 252.335 153.037 252.335 152.851C255.496 147.087 257.169 140.765 257.541 134.07C257.541 133.884 257.541 133.699 257.727 133.699L265.723 134.07C265.847 134.07 265.909 134.07 265.909 134.07C265.909 134.194 265.909 134.256 265.909 134.256V134.442C265.723 142.252 263.678 149.876 259.959 156.942C259.835 157.066 259.773 157.128 259.773 157.128ZM253.078 152.851L259.587 156.384C263.12 149.504 264.979 142.252 265.351 134.628L258.099 134.256C257.727 140.951 256.054 147.087 253.078 152.851ZM257.727 130.909C257.727 130.909 257.665 130.909 257.541 130.909C257.541 130.785 257.541 130.723 257.541 130.723C257.169 124.029 255.496 117.707 252.521 111.756C252.397 111.632 252.335 111.57 252.335 111.57C252.459 111.446 252.521 111.384 252.521 111.384L259.587 107.665C259.773 107.479 259.959 107.665 259.959 107.851C263.678 114.732 265.723 122.356 265.909 130.351C266.033 130.475 266.033 130.537 265.909 130.537C265.909 130.661 265.847 130.723 265.723 130.723L257.727 130.909ZM253.078 111.756C256.054 117.521 257.727 123.843 258.099 130.351L265.351 129.979C264.979 122.356 263.12 115.103 259.587 108.409L253.078 111.756ZM251.033 108.967C250.909 108.967 250.785 108.905 250.661 108.781C247.128 103.203 242.479 98.3679 236.901 95.0208C236.715 94.8349 236.715 94.6489 236.715 94.463L240.992 87.7688C240.992 87.7688 241.054 87.7688 241.178 87.7688C241.302 87.6448 241.364 87.6448 241.364 87.7688C248.058 91.8597 253.822 97.6241 257.913 104.318C257.913 104.318 257.913 104.504 257.727 104.69L251.033 108.967ZM237.459 94.6489C242.851 97.996 247.5 102.831 251.033 108.223L257.169 104.318C253.078 97.996 247.686 92.4175 241.364 88.5126L237.459 94.6489Z" fill="#163C5B"/>
<path d="M71.5911 221.096H70.1035V221.839H71.5911V221.096Z" fill="#40F4FF"/>
<path d="M74.5657 219.235H73.0781V219.979H74.5657V219.235Z" fill="#40F4FF"/>
<path d="M77.5419 221.653H76.2402V222.397H77.5419V221.653Z" fill="#40F4FF"/>
<path d="M80.5165 220.166H79.2148V221.096H80.5165V220.166Z" fill="#40F4FF"/>
<path d="M83.6771 222.583H82.1895V223.141H83.6771V222.583Z" fill="#40F4FF"/>
<path d="M86.6536 217.376H85.166V218.492H86.6536V217.376Z" fill="#40F4FF"/>
<path d="M89.6282 210.682H88.1406V212.541H89.6282V210.682Z" fill="#40F4FF"/>
<path d="M92.6044 204.918H91.3027V207.335H92.6044V204.918Z" fill="#40F4FF"/>
<path d="M95.579 207.521H94.2773V209.752H95.579V207.521Z" fill="#40F4FF"/>
<path d="M98.5536 222.583H97.252V223.141H98.5536V222.583Z" fill="#40F4FF"/>
<path d="M101.714 220.537H100.227V221.281H101.714V220.537Z" fill="#40F4FF"/>
<path d="M104.691 211.983H103.203V213.657H104.691V211.983Z" fill="#40F4FF"/>
<path d="M107.665 209.194H106.178V211.24H107.665V209.194Z" fill="#40F4FF"/>
<path d="M110.641 216.446H109.34V217.562H110.641V216.446Z" fill="#40F4FF"/>
<path d="M113.616 223.327H112.314V223.699H113.616V223.327Z" fill="#40F4FF"/>
<path d="M116.777 212.17H115.289V213.843H116.777V212.17Z" fill="#40F4FF"/>
<path d="M119.753 207.893H118.266V209.938H119.753V207.893Z" fill="#40F4FF"/>
<path d="M122.728 221.096H121.24V221.839H122.728V221.096Z" fill="#40F4FF"/>
<path d="M71.5911 221.653H70.1035V227.79H71.5911V221.653Z" fill="url(#paint0_linear_2302_1847)"/>
<path d="M74.5657 219.794H73.0781V227.79H74.5657V219.794Z" fill="url(#paint1_linear_2302_1847)"/>
<path d="M77.5419 222.397H76.2402V227.79H77.5419V222.397Z" fill="url(#paint2_linear_2302_1847)"/>
<path d="M80.5165 220.909H79.2148V227.789H80.5165V220.909Z" fill="url(#paint3_linear_2302_1847)"/>
<path d="M83.6771 223.327H82.1895V227.79H83.6771V223.327Z" fill="url(#paint4_linear_2302_1847)"/>
<path d="M86.6536 217.935H85.166V227.79H86.6536V217.935Z" fill="url(#paint5_linear_2302_1847)"/>
<path d="M89.6282 211.24H88.1406V227.79H89.6282V211.24Z" fill="url(#paint6_linear_2302_1847)"/>
<path d="M92.6044 205.476H91.3027V227.79H92.6044V205.476Z" fill="url(#paint7_linear_2302_1847)"/>
<path d="M95.579 208.079H94.2773V227.79H95.579V208.079Z" fill="url(#paint8_linear_2302_1847)"/>
<path d="M98.5536 223.327H97.252V227.79H98.5536V223.327Z" fill="url(#paint9_linear_2302_1847)"/>
<path d="M101.714 221.096H100.227V227.79H101.714V221.096Z" fill="url(#paint10_linear_2302_1847)"/>
<path d="M104.691 212.542H103.203V227.79H104.691V212.542Z" fill="url(#paint11_linear_2302_1847)"/>
<path d="M107.665 209.938H106.178V227.79H107.665V209.938Z" fill="url(#paint12_linear_2302_1847)"/>
<path d="M110.641 217.005H109.34V227.79H110.641V217.005Z" fill="url(#paint13_linear_2302_1847)"/>
<path d="M113.616 223.885H112.314V227.79H113.616V223.885Z" fill="url(#paint14_linear_2302_1847)"/>
<path d="M116.777 212.728H115.289V227.79H116.777V212.728Z" fill="url(#paint15_linear_2302_1847)"/>
<path d="M119.753 208.45H118.266V227.789H119.753V208.45Z" fill="url(#paint16_linear_2302_1847)"/>
<path d="M122.728 221.653H121.24V227.79H122.728V221.653Z" fill="url(#paint17_linear_2302_1847)"/>
<path d="M124.773 228.161H68.0586V227.604H124.773V228.161Z" fill="#40F4FF"/>
<path fill-rule="evenodd" clip-rule="evenodd" d="M424.711 114.918L424.897 149.691L426.57 150.806C426.694 150.93 426.756 150.992 426.756 150.992V191.716C426.756 191.716 426.694 191.778 426.57 191.902L421.178 197.48C421.054 197.48 420.992 197.48 420.992 197.48C420.868 197.48 420.806 197.48 420.806 197.48L418.574 197.108L407.231 208.265L392.727 222.769L393.285 225.187C393.285 225.187 393.223 225.249 393.099 225.373L378.037 240.435C378.037 240.559 377.975 240.621 377.851 240.621H367.624C367.5 240.621 367.438 240.559 367.438 240.435L364.835 237.831H61.9215L59.3182 240.435C59.1942 240.559 59.0702 240.621 58.9463 240.621H48.905C48.781 240.621 48.657 240.559 48.533 240.435L33.4711 225.373C33.4711 225.249 33.4711 225.187 33.4711 225.187L33.843 222.769L19.3388 208.265L7.99587 197.108L5.76445 197.48C5.64048 197.48 5.57851 197.48 5.57851 197.48L0 191.902C0 191.778 0 191.716 0 191.716V150.992C0 150.992 0 150.93 0 150.806L1.8595 149.691V114.918L0 113.802C0 113.802 0 113.74 0 113.616V72.8932C0 72.8932 0 72.8313 0 72.7073L5.57851 67.1288C5.70248 67.1288 5.76445 67.1288 5.76445 67.1288L7.99587 67.5007L33.843 41.8395L33.4711 39.6081C33.4711 39.4841 33.4711 39.3602 33.4711 39.2362L48.533 24.1742C48.657 24.0503 48.781 23.9883 48.905 23.9883H58.9463C59.0702 23.9883 59.1942 24.0503 59.3182 24.1742L61.9215 26.7775H364.835L367.438 24.1742C367.438 24.0503 367.5 23.9883 367.624 23.9883H377.851C377.975 23.9883 378.037 24.0503 378.037 24.1742L393.099 39.2362C393.223 39.3602 393.285 39.4841 393.285 39.6081L392.727 41.8395L418.574 67.5007L420.806 67.1288C420.93 67.1288 421.054 67.1288 421.178 67.1288L426.57 72.7073C426.694 72.8313 426.756 72.8932 426.756 72.8932V113.616C426.756 113.74 426.694 113.802 426.57 113.802L424.711 114.918ZM407.046 207.707L418.203 196.364L423.967 190.6V149.691C423.967 149.567 424.029 149.443 424.153 149.319V114.918C424.029 114.918 423.967 114.856 423.967 114.732V74.3808V74.0089V73.823L418.203 68.0585L407.046 56.7156L404.814 57.2734C404.69 57.2734 404.628 57.2734 404.628 57.2734C404.628 57.2734 404.566 57.2114 404.442 57.0875L388.264 40.9098C388.141 40.9098 388.079 40.8478 388.079 40.7238L388.636 38.4924L380.269 29.9387L377.479 27.3354H364.835H49.2769H49.0909L46.4876 29.9387L37.9339 38.4924L38.4917 40.7238C38.4917 40.8478 38.4917 40.9098 38.4917 40.9098L22.1281 57.0875C22.1281 57.2114 22.0661 57.2734 21.9422 57.2734L19.7107 56.7156L8.36777 68.0585L2.60329 73.823V114.732C2.60329 114.856 2.54133 114.98 2.41736 115.104V149.505C2.54133 149.505 2.60329 149.567 2.60329 149.691V190.6L8.36777 196.364L19.7107 207.707L21.9422 207.149C22.0661 207.149 22.1281 207.211 22.1281 207.335L38.4917 223.513C38.4917 223.637 38.4917 223.699 38.4917 223.699L37.9339 226.116L46.4876 234.484L49.0909 237.273H61.7355L377.479 237.087L380.269 234.484L388.636 226.116L388.079 223.699C388.079 223.699 388.141 223.637 388.264 223.513L404.442 207.335C404.566 207.211 404.69 207.149 404.814 207.149L407.046 207.707Z" fill="#40F4FF"/>
<path d="M128.306 18.9672H127.562V15.6201H128.306V18.9672Z" fill="#40F4FF"/>
<path d="M130.724 18.9672H130.166V15.6201H130.724V18.9672Z" fill="#40F4FF"/>
<path d="M133.14 18.9672H132.582V15.6201H133.14V18.9672Z" fill="#40F4FF"/>
<path d="M135.744 18.9672H135V15.6201H135.744V18.9672Z" fill="#40F4FF"/>
<path d="M138.161 18.9672H137.604V15.6201H138.161V18.9672Z" fill="#40F4FF"/>
<path d="M140.765 18.9672H140.021V15.6201H140.765V18.9672Z" fill="#40F4FF"/>
<path d="M143.183 18.9672H142.625V15.6201H143.183V18.9672Z" fill="#40F4FF"/>
<path d="M145.599 18.9672H145.041V15.6201H145.599V18.9672Z" fill="#40F4FF"/>
<path d="M148.203 18.9672H147.459V15.6201H148.203V18.9672Z" fill="#40F4FF"/>
<path d="M299.009 18.9672H298.451V15.6201H299.009V18.9672Z" fill="#40F4FF"/>
<path d="M296.591 18.9672H296.033V15.6201H296.591V18.9672Z" fill="#40F4FF"/>
<path d="M293.988 18.9672H293.43V15.6201H293.988V18.9672Z" fill="#40F4FF"/>
<path d="M291.57 18.9672H291.012V15.6201H291.57V18.9672Z" fill="#40F4FF"/>
<path d="M289.154 18.9672H288.41V15.6201H289.154V18.9672Z" fill="#40F4FF"/>
<path d="M286.55 18.9672H285.992V15.6201H286.55V18.9672Z" fill="#40F4FF"/>
<path d="M284.132 18.9672H283.574V15.6201H284.132V18.9672Z" fill="#40F4FF"/>
<path d="M281.714 18.9672H280.971V15.6201H281.714V18.9672Z" fill="#40F4FF"/>
<path d="M279.113 18.9672H278.555V15.6201H279.113V18.9672Z" fill="#40F4FF"/>
<path fill-rule="evenodd" clip-rule="evenodd" d="M343.45 237.459C343.574 237.583 343.574 237.707 343.45 237.831L340.846 240.62C340.722 240.62 340.598 240.62 340.474 240.62H306.817L304.214 243.223C304.214 243.347 304.152 243.409 304.028 243.409H254.937L249.173 249.173H177.582L171.818 243.409H122.541C122.541 243.409 122.479 243.347 122.355 243.223L119.751 240.62H86.0944C85.9704 240.62 85.9084 240.62 85.9084 240.62L83.1191 237.831C83.1191 237.707 83.1191 237.583 83.1191 237.459C83.2431 237.335 83.3671 237.273 83.491 237.273H111.012L113.801 234.483H151.735L154.524 237.273H187.065L185.206 239.132H130.536L128.677 237.273H153.594L151.549 235.227H113.987L111.941 237.273H127.747L130.165 239.69C130.289 239.814 130.351 239.876 130.351 239.876H185.392C185.516 239.876 185.578 239.814 185.578 239.69L187.995 237.273H198.036L200.64 234.669C200.64 234.545 200.702 234.483 200.826 234.483H225.929C226.053 234.483 226.115 234.545 226.115 234.669L228.904 237.273H238.76L241.177 239.69C241.177 239.814 241.239 239.876 241.363 239.876H296.218C296.342 239.876 296.404 239.814 296.404 239.69L298.822 237.273H314.813L312.582 235.227H275.206L272.975 237.273H297.892L296.032 239.132H241.363L239.503 237.273H272.231L274.834 234.483H312.954L315.743 237.273H343.264C343.388 237.273 343.45 237.335 343.45 237.459ZM254.194 243.409H225.929L223.512 240.992H203.057L200.826 243.409H172.747L177.954 248.616H248.801L254.194 243.409Z" fill="#40F4FF"/>
<path d="M320.764 24.918H314.07L311.652 27.3353H323.367L320.764 24.918Z" fill="#40F4FF"/>
<path d="M277.252 23.6162H288.409L290.64 21.3848H279.669L277.252 23.6162Z" fill="#40F4FF"/>
<path d="M278.741 21.3848H272.976C272.976 21.3848 272.914 21.3848 272.79 21.3848L267.584 26.7773H227.047C226.923 26.7773 226.861 26.8393 226.861 26.9633C226.737 27.0872 226.737 27.2112 226.861 27.3352L229.65 29.9385C229.65 30.0624 229.712 30.1244 229.836 30.1244H270.187L278.741 21.3848Z" fill="#40F4FF"/>
<path fill-rule="evenodd" clip-rule="evenodd" d="M377.852 26.7769V27.3347H324.299L321.137 24.3595C321.137 24.2355 321.075 24.1736 320.951 24.1736H313.885C313.885 24.1736 313.823 24.2355 313.699 24.3595L310.724 27.3347H283.947L281.344 29.938C281.344 30.062 281.282 30.124 281.158 30.124H270.931L276.695 24.3595H288.41C288.534 24.3595 288.658 24.2975 288.782 24.1736L291.571 21.3843H301.799L304.402 18.781C304.402 18.657 304.464 18.595 304.588 18.595H314.629C314.629 18.595 314.691 18.657 314.815 18.781L317.418 21.3843H322.439L314.629 13.5744H275.394L265.166 23.8017C265.166 23.8017 265.104 23.8017 264.98 23.8017H213.286H161.778C161.654 23.8017 161.53 23.8017 161.406 23.8017L151.365 13.5744H111.943L104.319 21.3843H109.34L111.943 18.781C111.943 18.657 112.005 18.595 112.129 18.595H122.17C122.17 18.595 122.232 18.657 122.356 18.781L124.96 21.3843H135.187L137.976 24.1736C137.976 24.2975 138.038 24.3595 138.162 24.3595H149.877L155.642 30.124H145.414C145.414 30.124 145.352 30.062 145.228 29.938L142.625 27.3347H116.034L112.873 24.3595C112.873 24.2355 112.811 24.1736 112.687 24.1736H105.621C105.621 24.1736 105.559 24.2355 105.435 24.3595L102.46 27.3347H47.2324V26.7769H72.8936L78.2861 21.3843H81.6332L76.2407 26.7769H80.8895L86.282 21.3843C86.282 21.3843 86.344 21.3843 86.468 21.3843H103.389L111.571 13.0165C111.695 13.0165 111.819 13.0165 111.943 13.0165H151.365L161.406 2.78926C161.53 2.66529 161.654 2.60331 161.778 2.60331H182.604L185.208 0C185.208 0 185.27 0 185.394 0H241.179C241.303 0 241.427 0 241.551 0L244.154 2.60331H264.98C265.104 2.60331 265.166 2.66529 265.166 2.78926L275.394 13.0165H314.815C314.939 13.0165 315.001 13.0165 315.001 13.0165L323.369 21.3843H340.104C340.228 21.3843 340.352 21.3843 340.476 21.3843L345.683 26.7769H350.518L345.125 21.3843H348.286L353.865 26.7769H377.852ZM274.65 13.2025L264.608 3.34711H213.1H161.592L151.737 13.2025L161.592 23.2438H213.1H264.608L274.65 13.2025Z" fill="#40F4FF"/>
<path d="M156.57 30.1244H196.921C196.921 30.1244 196.983 30.0624 197.107 29.9385L199.71 27.3352C199.834 27.2112 199.896 27.0872 199.896 26.9633C199.772 26.8393 199.648 26.7773 199.524 26.7773H159.173L153.781 21.3848C153.781 21.3848 153.719 21.3848 153.595 21.3848H147.83L156.57 30.1244Z" fill="#40F4FF"/>
<path d="M112.5 24.918H105.806L103.389 27.3353H115.104L112.5 24.918Z" fill="#40F4FF"/>
<path d="M138.347 23.6162H149.318L146.901 21.3848H135.93L138.347 23.6162Z" fill="#40F4FF"/>
<path d="M424.71 99.8552V95.9502L421.363 99.2973V103.202L424.71 99.8552Z" fill="#40F4FF"/>
<path d="M421.363 104.132V134.628C421.363 134.752 421.425 134.876 421.549 135L424.153 137.603C424.277 137.727 424.338 137.789 424.338 137.789C424.462 137.789 424.524 137.727 424.524 137.603C424.648 137.603 424.71 137.541 424.71 137.417V100.785L421.363 104.132Z" fill="#40F4FF"/>
<path d="M424.71 95.2068V91.1158C424.71 90.9919 424.648 90.9299 424.524 90.9299C424.4 90.8059 424.277 90.8059 424.153 90.9299L421.549 93.7191C421.425 93.7191 421.363 93.7811 421.363 93.9051V98.3679L424.71 95.2068Z" fill="#40F4FF"/>
<path d="M424.524 165.496C424.4 165.496 424.277 165.558 424.153 165.682L421.549 168.285C421.425 168.409 421.363 168.471 421.363 168.471V176.839C421.363 176.963 421.425 177.025 421.549 177.025L424.153 179.814C424.277 179.814 424.338 179.814 424.338 179.814C424.462 179.814 424.524 179.814 424.524 179.814C424.648 179.69 424.71 179.566 424.71 179.442V165.868C424.71 165.744 424.648 165.62 424.524 165.496Z" fill="#40F4FF"/>
<path d="M2.04492 95.9502V99.8552L5.39204 103.202V99.2973L2.04492 95.9502Z" fill="#40F4FF"/>
<path d="M2.04492 100.785V137.417C2.04492 137.541 2.10692 137.603 2.23088 137.603C2.23088 137.727 2.23088 137.789 2.23088 137.789C2.35485 137.789 2.47881 137.727 2.60278 137.603L5.2061 135C5.2061 134.876 5.26807 134.752 5.39204 134.628V104.132L2.04492 100.785Z" fill="#40F4FF"/>
<path d="M5.39204 98.3679V93.9051C5.26807 93.7811 5.2061 93.7191 5.2061 93.7191L2.60278 90.9299C2.47881 90.8059 2.35485 90.8059 2.23088 90.9299C2.10692 90.9299 2.04492 90.9919 2.04492 91.1158V95.2068L5.39204 98.3679Z" fill="#40F4FF"/>
<path d="M2.60278 165.682C2.47881 165.558 2.35485 165.496 2.23088 165.496C2.10692 165.62 2.04492 165.744 2.04492 165.868V179.442C2.04492 179.566 2.10692 179.69 2.23088 179.814C2.35485 179.814 2.47881 179.814 2.60278 179.814L5.2061 177.025C5.2061 177.025 5.26807 176.963 5.39204 176.839V168.471C5.26807 168.471 5.2061 168.409 5.2061 168.285L2.60278 165.682Z" fill="#40F4FF"/>
<path d="M213.286 5.02051H162.522L154.34 13.2023L162.522 21.5701H213.286H264.051L272.232 13.2023L264.051 5.02051H213.286Z" fill="#163C5B"/>
<path fill-rule="evenodd" clip-rule="evenodd" d="M7.81055 98.5537L15.6205 106.364V158.244L7.81055 166.054V98.5537ZM8.55434 164.752L15.0626 158.244V106.736L8.55434 100.041V164.752Z" fill="#40F4FF"/>
<path d="M10.2266 150.806H13.3877V142.066H10.2266V150.806Z" fill="url(#paint18_linear_2302_1847)"/>
<path d="M10.2266 141.323H13.3877V132.583H10.2266V141.323Z" fill="url(#paint19_linear_2302_1847)"/>
<path d="M10.2266 132.025H13.3877V123.285H10.2266V132.025Z" fill="url(#paint20_linear_2302_1847)"/>
<path d="M10.2266 160.476L13.3877 157.315V151.364H10.2266V160.476Z" fill="url(#paint21_linear_2302_1847)"/>
<path d="M13.3877 107.294L10.2266 104.318V113.244H13.3877V107.294Z" fill="url(#paint22_linear_2302_1847)"/>
<path d="M10.2266 122.728H13.3877V113.988H10.2266V122.728Z" fill="url(#paint23_linear_2302_1847)"/>
<path fill-rule="evenodd" clip-rule="evenodd" d="M418.761 98.5537V166.054L410.951 158.244V106.364L418.761 98.5537ZM418.203 100.041L411.695 106.55V158.058L418.203 164.566V100.041Z" fill="#40F4FF"/>
<path d="M416.342 113.988H413.367V122.728H416.342V113.988Z" fill="url(#paint24_linear_2302_1847)"/>
<path d="M416.342 142.066H413.367V150.806H416.342V142.066Z" fill="url(#paint25_linear_2302_1847)"/>
<path d="M416.342 132.583H413.367V141.323H416.342V132.583Z" fill="url(#paint26_linear_2302_1847)"/>
<path d="M416.342 104.318L413.367 107.294V113.244H416.342V104.318Z" fill="url(#paint27_linear_2302_1847)"/>
<path d="M413.367 157.315L416.342 160.476V151.364H413.367V157.315Z" fill="url(#paint28_linear_2302_1847)"/>
<path d="M416.342 123.285H413.367V132.025H416.342V123.285Z" fill="url(#paint29_linear_2302_1847)"/>
<path d="M170.702 230.579H170.145V227.418H170.702V230.579Z" fill="#40F4FF"/>
<path d="M185.021 230.579H184.463V227.418H185.021V230.579Z" fill="#40F4FF"/>
<path d="M199.339 230.579H198.781V227.418H199.339V230.579Z" fill="#40F4FF"/>
<path d="M213.657 230.579H213.1V227.418H213.657V230.579Z" fill="#40F4FF"/>
<path d="M227.976 230.579H227.418V227.418H227.976V230.579Z" fill="#40F4FF"/>
<path d="M242.294 230.579H241.736V227.418H242.294V230.579Z" fill="#40F4FF"/>
<path d="M256.611 230.579H255.867V227.418H256.611V230.579Z" fill="#40F4FF"/>
<path d="M170.702 230.579H170.145V228.905H170.702V230.579Z" fill="#40F4FF"/>
<path d="M175.537 230.579H174.793V228.905H175.537V230.579Z" fill="#40F4FF"/>
<path d="M180.187 230.579H179.629V228.905H180.187V230.579Z" fill="#40F4FF"/>
<path d="M185.021 230.579H184.463V228.905H185.021V230.579Z" fill="#40F4FF"/>
<path d="M189.855 230.579H189.111V228.905H189.855V230.579Z" fill="#40F4FF"/>
<path d="M194.505 230.579H193.947V228.905H194.505V230.579Z" fill="#40F4FF"/>
<path d="M199.339 230.579H198.781V228.905H199.339V230.579Z" fill="#40F4FF"/>
<path d="M204.173 230.579H203.43V228.905H204.173V230.579Z" fill="#40F4FF"/>
<path d="M208.824 230.579H208.266V228.905H208.824V230.579Z" fill="#40F4FF"/>
<path d="M213.657 230.579H213.1V228.905H213.657V230.579Z" fill="#40F4FF"/>
<path d="M218.492 230.579H217.748V228.905H218.492V230.579Z" fill="#40F4FF"/>
<path d="M223.14 230.579H222.582V228.905H223.14V230.579Z" fill="#40F4FF"/>
<path d="M227.976 230.579H227.418V228.905H227.976V230.579Z" fill="#40F4FF"/>
<path d="M232.81 230.579H232.066V228.905H232.81V230.579Z" fill="#40F4FF"/>
<path d="M237.458 230.579H236.9V228.905H237.458V230.579Z" fill="#40F4FF"/>
<path d="M242.294 230.579H241.736V228.905H242.294V230.579Z" fill="#40F4FF"/>
<path d="M246.943 230.579H246.385V228.905H246.943V230.579Z" fill="#40F4FF"/>
<path d="M251.777 230.579H251.219V228.905H251.777V230.579Z" fill="#40F4FF"/>
<path d="M256.611 230.579H255.867V228.905H256.611V230.579Z" fill="#40F4FF"/>
<path d="M261.818 230.95H164.752V230.393H261.818V230.95Z" fill="#40F4FF"/>
<path d="M234.484 225.372L232.811 223.513H236.344L234.484 225.372Z" fill="#40F4FF"/>
<path fill-rule="evenodd" clip-rule="evenodd" d="M234.483 225.745C234.483 225.745 234.421 225.683 234.297 225.559L232.623 223.885C232.499 223.761 232.438 223.637 232.438 223.513C232.561 223.389 232.685 223.327 232.809 223.327H236.342C236.466 223.327 236.528 223.389 236.528 223.513C236.652 223.637 236.652 223.761 236.528 223.885L234.855 225.559C234.731 225.683 234.607 225.745 234.483 225.745ZM233.553 223.885L234.483 224.815L235.599 223.885H233.553Z" fill="#40F4FF"/>
<defs>
<linearGradient id="paint0_linear_2302_1847" x1="277.513" y1="-1159.63" x2="277.513" y2="-1164.52" gradientUnits="userSpaceOnUse">
<stop stop-color="#163C5B"/>
<stop offset="1" stop-color="#2B98AD"/>
</linearGradient>
<linearGradient id="paint1_linear_2302_1847" x1="288.897" y1="-1612.35" x2="288.897" y2="-1618.79" gradientUnits="userSpaceOnUse">
<stop stop-color="#163C5B"/>
<stop offset="1" stop-color="#2B98AD"/>
</linearGradient>
<linearGradient id="paint2_linear_2302_1847" x1="281.499" y1="-1035.48" x2="281.499" y2="-1039.32" gradientUnits="userSpaceOnUse">
<stop stop-color="#163C5B"/>
<stop offset="1" stop-color="#2B98AD"/>
</linearGradient>
<linearGradient id="paint3_linear_2302_1847" x1="289.954" y1="-1386.64" x2="289.954" y2="-1391.52" gradientUnits="userSpaceOnUse">
<stop stop-color="#163C5B"/>
<stop offset="1" stop-color="#2B98AD"/>
</linearGradient>
<linearGradient id="paint4_linear_2302_1847" x1="284.88" y1="-834.632" x2="284.88" y2="-838.272" gradientUnits="userSpaceOnUse">
<stop stop-color="#163C5B"/>
<stop offset="1" stop-color="#2B98AD"/>
</linearGradient>
<linearGradient id="paint5_linear_2302_1847" x1="311.173" y1="-2092.66" x2="311.173" y2="-2100.55" gradientUnits="userSpaceOnUse">
<stop stop-color="#163C5B"/>
<stop offset="1" stop-color="#2B98AD"/>
</linearGradient>
<linearGradient id="paint6_linear_2302_1847" x1="372.52" y1="-3698.69" x2="372.52" y2="-3711.96" gradientUnits="userSpaceOnUse">
<stop stop-color="#163C5B"/>
<stop offset="1" stop-color="#2B98AD"/>
</linearGradient>
<linearGradient id="paint7_linear_2302_1847" x1="451.816" y1="-5110.01" x2="451.816" y2="-5125.68" gradientUnits="userSpaceOnUse">
<stop stop-color="#163C5B"/>
<stop offset="1" stop-color="#2B98AD"/>
</linearGradient>
<linearGradient id="paint8_linear_2302_1847" x1="416.192" y1="-4496.49" x2="416.192" y2="-4510.27" gradientUnits="userSpaceOnUse">
<stop stop-color="#163C5B"/>
<stop offset="1" stop-color="#2B98AD"/>
</linearGradient>
<linearGradient id="paint9_linear_2302_1847" x1="300.079" y1="-882.72" x2="300.079" y2="-885.938" gradientUnits="userSpaceOnUse">
<stop stop-color="#163C5B"/>
<stop offset="1" stop-color="#2B98AD"/>
</linearGradient>
<linearGradient id="paint10_linear_2302_1847" x1="309.692" y1="-1392.05" x2="309.692" y2="-1397.38" gradientUnits="userSpaceOnUse">
<stop stop-color="#163C5B"/>
<stop offset="1" stop-color="#2B98AD"/>
</linearGradient>
<linearGradient id="paint11_linear_2302_1847" x1="374.112" y1="-3522.61" x2="374.112" y2="-3534.86" gradientUnits="userSpaceOnUse">
<stop stop-color="#163C5B"/>
<stop offset="1" stop-color="#2B98AD"/>
</linearGradient>
<linearGradient id="paint12_linear_2302_1847" x1="406.527" y1="-4198.65" x2="406.527" y2="-4213.02" gradientUnits="userSpaceOnUse">
<stop stop-color="#163C5B"/>
<stop offset="1" stop-color="#2B98AD"/>
</linearGradient>
<linearGradient id="paint13_linear_2302_1847" x1="341.174" y1="-2444.26" x2="341.174" y2="-2451.8" gradientUnits="userSpaceOnUse">
<stop stop-color="#163C5B"/>
<stop offset="1" stop-color="#2B98AD"/>
</linearGradient>
<linearGradient id="paint14_linear_2302_1847" x1="313.606" y1="-761.155" x2="313.606" y2="-763.928" gradientUnits="userSpaceOnUse">
<stop stop-color="#163C5B"/>
<stop offset="1" stop-color="#2B98AD"/>
</linearGradient>
<linearGradient id="paint15_linear_2302_1847" x1="384.261" y1="-3574.52" x2="384.261" y2="-3586.63" gradientUnits="userSpaceOnUse">
<stop stop-color="#163C5B"/>
<stop offset="1" stop-color="#2B98AD"/>
</linearGradient>
<linearGradient id="paint16_linear_2302_1847" x1="435.422" y1="-4656.84" x2="435.422" y2="-4672.29" gradientUnits="userSpaceOnUse">
<stop stop-color="#163C5B"/>
<stop offset="1" stop-color="#2B98AD"/>
</linearGradient>
<linearGradient id="paint17_linear_2302_1847" x1="328.82" y1="-1336.23" x2="328.82" y2="-1341.15" gradientUnits="userSpaceOnUse">
<stop stop-color="#163C5B"/>
<stop offset="1" stop-color="#2B98AD"/>
</linearGradient>
<linearGradient id="paint18_linear_2302_1847" x1="1867.93" y1="-10781.5" x2="1867.93" y2="-10877" gradientUnits="userSpaceOnUse">
<stop stop-color="#163C5B"/>
<stop offset="1" stop-color="#40F4FF"/>
</linearGradient>
<linearGradient id="paint19_linear_2302_1847" x1="1767.72" y1="-10781.5" x2="1767.72" y2="-10877" gradientUnits="userSpaceOnUse">
<stop stop-color="#163C5B"/>
<stop offset="1" stop-color="#40F4FF"/>
</linearGradient>
<linearGradient id="paint20_linear_2302_1847" x1="1669.47" y1="-10781.2" x2="1669.47" y2="-10876.6" gradientUnits="userSpaceOnUse">
<stop stop-color="#163C5B"/>
<stop offset="1" stop-color="#40F4FF"/>
</linearGradient>
<linearGradient id="paint21_linear_2302_1847" x1="1898.08" y1="-10781.5" x2="1898.08" y2="-10877" gradientUnits="userSpaceOnUse">
<stop stop-color="#163C5B"/>
<stop offset="1" stop-color="#40F4FF"/>
</linearGradient>
<linearGradient id="paint22_linear_2302_1847" x1="1417.94" y1="-10781.5" x2="1417.94" y2="-10877" gradientUnits="userSpaceOnUse">
<stop stop-color="#163C5B"/>
<stop offset="1" stop-color="#40F4FF"/>
</linearGradient>
<linearGradient id="paint23_linear_2302_1847" x1="1571.22" y1="-10781.5" x2="1571.22" y2="-10877" gradientUnits="userSpaceOnUse">
<stop stop-color="#163C5B"/>
<stop offset="1" stop-color="#40F4FF"/>
</linearGradient>
<linearGradient id="paint24_linear_2302_1847" x1="1974.36" y1="-22959.2" x2="1974.36" y2="-23049" gradientUnits="userSpaceOnUse">
<stop stop-color="#163C5B"/>
<stop offset="1" stop-color="#40F4FF"/>
</linearGradient>
<linearGradient id="paint25_linear_2302_1847" x1="2271.06" y1="-22959.2" x2="2271.06" y2="-23049.1" gradientUnits="userSpaceOnUse">
<stop stop-color="#163C5B"/>
<stop offset="1" stop-color="#40F4FF"/>
</linearGradient>
<linearGradient id="paint26_linear_2302_1847" x1="2170.85" y1="-22959.2" x2="2170.85" y2="-23049" gradientUnits="userSpaceOnUse">
<stop stop-color="#163C5B"/>
<stop offset="1" stop-color="#40F4FF"/>
</linearGradient>
<linearGradient id="paint27_linear_2302_1847" x1="1821.07" y1="-22959.2" x2="1821.07" y2="-23049" gradientUnits="userSpaceOnUse">
<stop stop-color="#163C5B"/>
<stop offset="1" stop-color="#40F4FF"/>
</linearGradient>
<linearGradient id="paint28_linear_2302_1847" x1="2301.22" y1="-22959.2" x2="2301.22" y2="-23049.1" gradientUnits="userSpaceOnUse">
<stop stop-color="#163C5B"/>
<stop offset="1" stop-color="#40F4FF"/>
</linearGradient>
<linearGradient id="paint29_linear_2302_1847" x1="2072.61" y1="-22958.4" x2="2072.61" y2="-23048.3" gradientUnits="userSpaceOnUse">
<stop stop-color="#163C5B"/>
<stop offset="1" stop-color="#40F4FF"/>
</linearGradient>
</defs>
</svg>
