<svg width="523" height="430" viewBox="0 0 523 430" fill="none" xmlns="http://www.w3.org/2000/svg">
<path data-figma-bg-blur-radius="40" d="M184.082 125.875H10.474C8.64595 125.875 6.90513 126.656 5.69062 128.023L2.81659 131.256C1.77524 132.427 1.20001 133.94 1.20001 135.508V386.17C1.20001 388.016 1.99669 389.772 3.38558 390.987L44.1903 426.691C45.357 427.712 46.8545 428.275 48.4047 428.275H253.067C254.451 428.275 255.799 427.825 256.907 426.995L259.893 424.755C261.001 423.924 262.349 423.475 263.733 423.475H480.757C482.567 423.475 484.293 422.708 485.506 421.364L515.549 388.102C516.612 386.926 517.2 385.397 517.2 383.812V269.248C517.2 267.363 516.368 265.573 514.927 264.357L365.388 138.183C364.233 137.209 362.771 136.675 361.261 136.675H204.318C203.067 136.675 201.843 136.308 200.798 135.62L187.602 126.929C186.557 126.241 185.333 125.875 184.082 125.875Z" fill="#0A0B16" fill-opacity="0.7" stroke="#E0E0E0" stroke-width="2.4"/>
<path d="M405.592 155.244C405.592 155.244 432.119 148.286 456.904 160.302C456.904 160.302 474.634 168.033 479.537 178.987L476.27 212.132C476.27 212.132 439.821 269.307 436.532 269.282C436.532 269.282 420.671 281.48 409.304 266.299C409.304 266.299 384.717 237.968 382.16 204.001L385.515 169.961C385.515 169.961 390.431 160.331 405.592 155.244Z" fill="#CADDE1"/>
<path d="M421.869 188.825C425.677 189.196 429.486 189.564 433.293 189.939C433.401 189.95 433.503 190.013 433.608 190.053L433.135 194.851C432.837 194.822 432.629 194.801 432.421 194.781C428.881 194.432 425.342 194.081 421.801 193.739C421.58 193.717 421.352 193.772 421.127 193.791C421.069 193.603 420.95 193.412 420.965 193.23C421.076 191.914 421.214 190.599 421.344 189.285C421.369 189.025 421.381 188.753 421.765 188.819C421.8 188.823 421.834 188.824 421.869 188.826L421.869 188.825Z" fill="#2C3240"/>
<path d="M434.777 195.024C434.743 194.881 434.669 194.734 434.681 194.595C434.801 193.257 434.939 191.921 435.067 190.584C435.092 190.328 435.143 190.111 435.479 190.17C435.514 190.173 435.548 190.174 435.583 190.176C439.39 190.547 443.198 190.917 447.005 191.291C447.113 191.301 447.215 191.364 447.32 191.404C447.193 192.662 447.074 193.921 446.933 195.177C446.895 195.511 446.788 195.837 446.704 196.199L434.776 195.023L434.777 195.024Z" fill="#2C3240"/>
<path d="M427.33 206.163C427.271 206.026 427.15 205.884 427.162 205.752C427.291 204.286 427.441 202.823 427.589 201.318C427.78 201.295 427.929 201.251 428.073 201.266C432.011 201.656 435.949 202.051 439.887 202.447C439.89 202.494 439.891 202.541 439.893 202.589C439.705 204.103 439.518 205.618 439.323 207.194C439.028 207.165 438.819 207.144 438.611 207.124C435.107 206.778 431.603 206.43 428.099 206.092C427.877 206.07 427.648 206.119 427.423 206.136C427.391 206.14 427.361 206.148 427.332 206.163L427.33 206.163Z" fill="#2C3240"/>
<path d="M434.162 200.85C434.138 200.757 434.084 200.662 434.092 200.572C434.23 199.14 434.375 197.709 434.522 196.276C434.527 196.223 434.57 196.174 434.626 196.064C434.811 196.07 435.018 196.067 435.222 196.087C438.899 196.447 442.576 196.81 446.254 197.178C446.459 197.198 446.657 197.279 446.859 197.331C446.796 197.528 446.698 197.722 446.676 197.924C446.556 199.006 446.462 200.091 446.344 201.173C446.318 201.41 446.23 201.641 446.142 201.985L434.54 200.842C434.466 200.837 434.393 200.832 434.32 200.826L434.284 200.851C434.243 200.85 434.204 200.85 434.163 200.849L434.162 200.85Z" fill="#2C3240"/>
<path d="M420.376 199.348L420.83 194.746C421.021 194.734 421.172 194.704 421.319 194.719C425.166 195.094 429.013 195.476 432.86 195.856C432.956 195.866 433.051 195.89 433.147 195.908C433.138 195.941 433.132 195.975 433.128 196.009C433.07 196.208 432.984 196.405 432.962 196.607C432.835 197.785 432.726 198.966 432.607 200.145C432.593 200.29 432.555 200.432 432.54 200.515C431.692 200.48 430.897 200.482 430.109 200.408C427.014 200.115 423.922 199.797 420.829 199.487C420.745 199.49 420.66 199.491 420.577 199.493C420.511 199.444 420.444 199.397 420.379 199.348L420.376 199.348Z" fill="#2C3240"/>
<path d="M413.515 204.658L413.968 199.995C414.047 199.967 414.126 199.937 414.205 199.909C418.227 200.31 422.248 200.712 426.27 201.113C426.263 201.148 426.271 201.179 426.295 201.205C426.28 201.236 426.269 201.269 426.259 201.303C425.938 201.233 426.035 201.495 426.021 201.631C425.896 202.809 425.785 203.989 425.665 205.169C425.645 205.373 425.607 205.577 425.57 205.838C425.303 205.811 425.095 205.791 424.887 205.77C421.387 205.425 417.888 205.078 414.387 204.74C414.164 204.718 413.934 204.761 413.708 204.774C413.643 204.736 413.579 204.698 413.515 204.66L413.515 204.658Z" fill="#2C3240"/>
<path d="M426.742 211.967C426.691 211.786 426.582 211.6 426.597 211.424C426.718 210.05 426.861 208.677 427.003 207.305C427.008 207.251 427.044 207.199 427.09 207.085C427.256 207.083 427.444 207.062 427.628 207.081C431.38 207.447 435.131 207.817 438.882 208.19C439.03 208.204 439.173 208.27 439.318 208.312C439.164 209.88 439.009 211.449 438.854 213.018L438.856 213.018C438.67 212.964 438.482 212.91 438.297 212.856C434.778 212.506 431.259 212.153 427.739 211.808C427.613 211.795 427.481 211.843 427.351 211.863C427.274 211.856 427.198 211.848 427.121 211.839C427.08 211.838 427.041 211.835 427 211.833L426.892 211.941L426.864 211.961C426.823 211.962 426.783 211.964 426.741 211.966L426.742 211.967Z" fill="#2C3240"/>
<path d="M418.667 199.52C418.455 199.514 418.243 199.52 418.033 199.5C414.582 199.165 411.13 198.828 407.679 198.491C407.554 198.469 407.429 198.447 407.303 198.426C407.245 198.311 407.128 198.19 407.138 198.081C407.277 196.54 407.432 195 407.587 193.429C407.759 193.419 407.891 193.394 408.02 193.407C411.71 193.768 415.398 194.134 419.088 194.499C419.203 194.511 419.317 194.539 419.432 194.559C419.424 194.592 419.417 194.624 419.411 194.658C419.354 194.858 419.267 195.053 419.246 195.256C419.125 196.377 419.021 197.5 418.907 198.621C418.889 198.805 418.85 198.985 418.805 199.261L407.454 198.143C407.449 198.198 407.443 198.255 407.438 198.311C407.619 198.329 407.799 198.347 407.98 198.365C411.347 198.696 414.713 199.027 418.079 199.365C418.278 199.384 418.472 199.466 418.667 199.519L418.667 199.52Z" fill="#2C3240"/>
<path d="M440.407 213.274L440.875 208.528L445.788 209.012C445.789 209.186 445.804 209.338 445.789 209.487C445.661 210.821 445.531 212.154 445.395 213.485C445.38 213.636 445.32 213.783 445.279 213.931C443.718 213.771 442.157 213.612 440.595 213.452C440.533 213.392 440.47 213.333 440.408 213.273L440.407 213.274Z" fill="#52839F"/>
<path d="M412.606 200.019L412.137 204.774L407.207 204.288L407.692 199.365C409.299 199.505 410.895 199.643 412.492 199.783C412.53 199.862 412.568 199.941 412.607 200.019L412.606 200.019Z" fill="#52839F"/>
<path d="M448.088 185.726L447.604 190.633L442.784 190.158L443.268 185.251L448.088 185.726Z" fill="#52839F"/>
<path d="M443.934 179.385L448.663 179.851L448.172 184.835L443.322 184.357L443.803 179.477C443.847 179.447 443.89 179.416 443.934 179.385Z" fill="#52839F"/>
<path d="M414.658 193.144C414.813 191.715 414.969 190.286 415.124 188.858C415.138 188.727 415.15 188.594 415.167 188.419C415.344 188.41 415.493 188.386 415.638 188.399C416.954 188.524 418.268 188.661 419.585 188.782C419.908 188.812 420.101 188.917 420.064 189.28C419.921 190.673 419.785 192.065 419.641 193.458C419.634 193.53 419.586 193.598 419.519 193.763L414.74 193.292C414.712 193.242 414.685 193.193 414.657 193.143L414.658 193.144Z" fill="#52839F"/>
<path d="M441.059 207.48L441.527 202.738L446.358 203.214L445.872 208.147L441.272 207.694C441.202 207.622 441.13 207.552 441.059 207.48Z" fill="#52839F"/>
<path d="M405.438 155.314C405.438 155.314 431.965 148.356 456.751 160.372C456.751 160.372 474.48 168.103 479.384 179.057L476.116 212.202C476.116 212.202 456.953 260.18 442.111 269.618C442.111 269.618 426.205 282.278 409.15 266.369C409.15 266.369 384.564 238.038 382.006 204.071L385.362 170.031C385.362 170.031 390.278 160.401 405.438 155.314Z" fill="#CADDE1"/>
<path d="M369.799 287.882C369.799 287.882 372.896 283.747 378.531 287.405C378.531 287.405 383.166 294.554 384.437 301.536C384.437 301.536 384.442 304.801 382.242 303.932C382.242 303.932 374.404 297.675 369.799 287.882Z" fill="#2C3240"/>
<path d="M376.032 284.924C376.032 284.924 378.502 280.387 384.603 283.193C384.603 283.193 390.221 289.601 392.483 296.328C392.483 296.328 392.958 299.558 390.657 299.014C390.657 299.014 381.999 293.951 376.035 284.921" fill="#2C3240"/>
<path d="M381.111 280.895C381.111 280.895 382.554 275.934 389.114 277.373C389.114 277.373 395.971 282.432 399.619 288.521C399.619 288.521 400.775 291.575 398.409 291.537C398.409 291.537 388.869 288.442 381.114 280.896" fill="#2C3240"/>
<path d="M386.511 257.77C386.511 257.77 396.083 260.808 397.961 269.07C397.961 269.07 400.198 279.761 394.264 273.193C394.264 273.193 390.68 267.246 387.511 270.478C387.511 270.478 381.244 262.636 386.511 257.77Z" fill="#2C3240"/>
<path d="M467.891 297.584C467.891 297.584 465.661 292.924 459.421 295.412C459.421 295.412 453.479 301.518 450.869 308.118C450.869 308.118 450.227 311.318 452.555 310.895C452.555 310.895 461.463 306.29 467.891 297.584Z" fill="#2C3240"/>
<path d="M462.356 293.469C462.356 293.469 460.82 288.537 454.288 290.098C454.288 290.098 447.527 295.286 443.994 301.442C443.994 301.442 442.898 304.517 445.261 304.432C445.261 304.432 454.741 301.158 462.353 293.466" fill="#2C3240"/>
<path d="M459.73 287.784C459.73 287.784 459.283 282.636 452.569 282.767C452.569 282.767 444.856 286.389 440.089 291.648C440.089 291.648 438.359 294.419 440.687 294.843C440.687 294.843 450.648 293.67 459.727 287.783" fill="#2C3240"/>
<path d="M462.629 268.537C462.629 268.537 453.108 265.346 446.719 270.912C446.719 270.912 438.609 278.229 447.274 276.423C447.274 276.423 453.675 273.733 454.328 278.213C454.328 278.213 464.015 275.575 462.629 268.54" fill="#2C3240"/>
<path d="M368.181 189.484C368.181 189.484 323.185 241.653 370.294 288.777C370.294 288.777 376.787 292.708 389.06 277.464C389.06 277.464 392.54 266.439 386.514 257.768C386.514 257.768 354.056 233.418 382.588 199.688C382.588 199.688 381.493 188.64 368.181 189.484Z" fill="white"/>
<path d="M356.727 207.867C356.727 207.867 355.338 209.824 353.243 215.9C353.243 215.9 364.172 214.285 371.646 220.406C371.646 220.406 371.821 218.629 374.212 212.582C374.212 212.582 369.079 206.99 356.727 207.867Z" fill="#2C3240"/>
<path d="M349.171 248.106C349.171 248.106 350.068 254.178 350.752 256.34C350.752 256.34 361.251 248.101 380.426 251.786C380.426 251.786 376.245 246.587 374.788 243.153C374.788 243.153 356.511 243.445 349.171 248.106Z" fill="#2E3341"/>
<path d="M491.889 199.351C491.889 199.351 523.859 245.282 465.785 300.287C465.785 300.287 458.883 300.504 452.548 282.828C452.548 282.828 451.508 275.563 462.011 267.465C472.514 259.367 493.119 234.339 476.295 211.875C476.295 211.875 477.736 198.255 491.889 199.351Z" fill="white"/>
<path d="M498.666 215.576C498.666 215.576 499.797 219.277 500.369 225.616C500.369 225.616 490.884 221.689 482.359 226.234C482.359 226.234 481.82 222.591 480.393 218.86C480.393 218.86 486.723 212.304 498.666 215.576Z" fill="#2C3240"/>
<path d="M496.472 256.045C496.472 256.045 495.558 259.245 492.191 266.093C492.191 266.093 491.323 257.631 471.798 257.501C471.798 257.501 475.937 251.926 477.443 248.784C477.443 248.784 490.183 250.04 496.472 256.045Z" fill="#2E3341"/>
<path d="M473.185 170.583C473.185 170.583 490.996 175.031 492.749 199.735C492.749 199.735 485.425 195.124 476.295 211.874C476.295 211.874 465.353 204.513 473.185 170.583Z" fill="#9DABA7"/>
<path d="M392.004 162.581C392.004 162.581 373.084 162.81 364.136 187.057C364.136 187.057 362.929 193.232 364.322 194.554C364.322 194.554 377.341 183.871 382.666 199.653C382.666 199.653 394.78 179.308 392.004 162.581Z" fill="#9DABA7"/>
<path d="M381.641 82.5812L387.853 19.5682C387.853 19.5682 381.627 15.9629 389.478 3.07719C389.478 3.07719 391.054 0.139225 392.782 3.40282C392.782 3.40282 397.451 13.2388 392.87 20.2661L386.678 83.0777L381.641 82.5812Z" fill="#CADDE1"/>
<path d="M381.491 81.0707C381.491 81.0707 397.197 43.1298 437.195 47.0724C437.195 47.0724 474.339 43.5539 494.812 87.7535C494.812 87.7535 497.045 116.693 488.746 134.124C488.746 134.124 474.987 168.299 431.518 161.205C431.518 161.205 394.283 160.711 380.161 124.916C380.161 124.916 373.926 115.327 381.491 81.0707Z" fill="white"/>
<path d="M381.875 80.2108C381.875 80.2108 389.896 95.9594 381.646 128.054L363.794 114.926C363.794 114.926 359.231 97.481 366.639 86.0683L381.875 80.2108Z" fill="#CADDE1"/>
<path d="M493.594 84.9411C493.594 84.9411 486.646 115.967 489.484 132.701L509.906 119.756C509.906 119.756 514.305 108.522 511.204 94.4551L493.594 84.9411Z" fill="#CADDE1"/>
<path d="M396.005 79.5096C396.005 79.5096 438.947 55.9206 481.15 87.9025C481.15 87.9025 483.758 114.186 476.798 132.048C476.798 132.048 434.53 169.166 394.995 128.173C394.995 128.173 386.821 121.085 396.005 79.5096Z" fill="#303241"/>
<path d="M410.71 88.1395L419.329 88.9891L426.221 100.737L417.926 99.9197L414.854 94.0825L411.44 99.2804L404.178 98.5646L410.71 88.1395Z" fill="#4DE5FD"/>
<path d="M455.806 91.6874L464.422 92.5367L471.317 104.285L463.021 103.468L459.95 97.6304L456.533 102.828L449.271 102.112L455.806 91.6874Z" fill="#4DE5FD"/>
<path d="M412.468 115.836L417.338 124.094L456.743 127.978L460.821 120.602L467.022 121.213L460.069 133.691L413.39 129.09L405.899 115.188L412.468 115.836Z" fill="#4DE5FD"/>
<path data-figma-bg-blur-radius="40" d="M329.2 357.564V397.875C329.2 401.409 332.065 404.275 335.6 404.275H473.157C474.967 404.275 476.693 403.508 477.906 402.164L496.749 381.302C497.812 380.126 498.4 378.597 498.4 377.012V347.075C498.4 343.54 495.535 340.675 492 340.675H345.215C343.421 340.675 341.71 341.427 340.498 342.75L330.882 353.239C329.8 354.42 329.2 355.963 329.2 357.564Z" stroke="#E0E0E0" stroke-width="2.4"/>
<path d="M359.653 379.788C357.727 379.788 356.196 379.251 355.061 378.175C353.926 377.085 353.359 375.517 353.359 373.471V369.798C353.359 367.752 353.926 366.191 355.061 365.116C356.196 364.026 357.727 363.481 359.653 363.481C361.579 363.481 363.11 364.026 364.245 365.116C365.395 366.191 365.97 367.752 365.97 369.798V373.471C365.97 375.517 365.395 377.085 364.245 378.175C363.11 379.251 361.579 379.788 359.653 379.788ZM359.653 377.615C360.892 377.615 361.848 377.257 362.52 376.54C363.192 375.808 363.528 374.815 363.528 373.561V369.708C363.528 368.454 363.192 367.468 362.52 366.751C361.848 366.02 360.892 365.654 359.653 365.654C358.443 365.654 357.495 366.02 356.808 366.751C356.121 367.468 355.778 368.454 355.778 369.708V373.561C355.778 374.815 356.121 375.808 356.808 376.54C357.495 377.257 358.443 377.615 359.653 377.615ZM368.834 379.475V363.795H371.253V370.313H371.611L377.458 363.795H380.616L373.538 371.523L380.862 379.475H377.614L371.611 372.822H371.253V379.475H368.834ZM382.77 382.521V381.199H383.532C384.144 381.199 384.45 380.893 384.45 380.281V379.564H384.114C383.591 379.564 383.158 379.407 382.815 379.094C382.471 378.78 382.3 378.384 382.3 377.907C382.3 377.384 382.471 376.966 382.815 376.652C383.158 376.324 383.591 376.159 384.114 376.159C384.637 376.159 385.062 376.331 385.391 376.675C385.734 377.003 385.906 377.436 385.906 377.974V380.303C385.906 381.782 385.167 382.521 383.689 382.521H382.77ZM396.921 379.475V365.99H392.105V363.795H404.157V365.99H399.341V379.475H396.921ZM406.349 379.475V363.795H408.768V370.515H415.354V363.795H417.773V379.475H415.354V372.71H408.768V379.475H406.349ZM419.884 379.475L424.364 363.795H428.62L433.078 379.475H430.592L429.561 375.779H423.424L422.393 379.475H419.884ZM424.028 373.539H428.956L426.672 365.295H426.313L424.028 373.539ZM435.202 379.475V363.795H439.862L444.118 377.862H444.476V363.795H446.873V379.475H442.214L437.958 365.385H437.599V379.475H435.202ZM450.143 379.475V363.795H452.562V370.313H452.921L458.767 363.795H461.925L454.847 371.523L462.172 379.475H458.924L452.921 372.822H452.562V379.475H450.143ZM469.19 379.788C468.01 379.788 466.965 379.579 466.054 379.161C465.143 378.743 464.426 378.131 463.903 377.324C463.396 376.503 463.142 375.51 463.142 374.345V373.785H465.539V374.345C465.539 375.45 465.867 376.279 466.524 376.831C467.196 377.384 468.085 377.66 469.19 377.66C470.31 377.66 471.154 377.429 471.721 376.966C472.289 376.488 472.572 375.876 472.572 375.129C472.572 374.636 472.438 374.233 472.169 373.919C471.9 373.606 471.519 373.359 471.027 373.18C470.534 372.986 469.944 372.807 469.257 372.643L468.428 372.441C467.428 372.202 466.554 371.911 465.807 371.567C465.076 371.209 464.508 370.739 464.105 370.156C463.702 369.574 463.5 368.827 463.5 367.916C463.5 366.99 463.724 366.199 464.172 365.542C464.635 364.885 465.27 364.377 466.076 364.019C466.883 363.66 467.831 363.481 468.921 363.481C470.011 363.481 470.982 363.668 471.833 364.041C472.699 364.414 473.379 364.967 473.871 365.699C474.364 366.43 474.611 367.349 474.611 368.454V369.26H472.214V368.454C472.214 367.782 472.072 367.237 471.788 366.819C471.519 366.4 471.139 366.094 470.646 365.9C470.153 365.706 469.578 365.609 468.921 365.609C467.965 365.609 467.219 365.811 466.681 366.214C466.158 366.602 465.897 367.147 465.897 367.849C465.897 368.327 466.009 368.723 466.233 369.036C466.472 369.335 466.815 369.581 467.263 369.775C467.711 369.97 468.271 370.141 468.943 370.291L469.772 370.492C470.788 370.716 471.684 371.007 472.46 371.366C473.237 371.709 473.849 372.18 474.297 372.777C474.745 373.374 474.969 374.143 474.969 375.084C474.969 376.025 474.73 376.846 474.252 377.548C473.789 378.25 473.125 378.803 472.259 379.206C471.393 379.594 470.37 379.788 469.19 379.788Z" fill="#E0E0E0"/>
<g filter="url(#filter2_d_66_3458)">
<path d="M58.6482 197.475L56.293 179.555H59.6466L61.3874 195.119H61.8482L64.101 179.555H69.9378L72.1906 195.119H72.6514L74.3922 179.555H77.7458L75.3906 197.475H69.5538L67.2498 181.551H66.789L64.485 197.475H58.6482ZM80.2146 197.475V179.555H91.7346V182.627H83.5938V186.902H91.0178V189.974H83.5938V194.403H91.8882V197.475H80.2146ZM94.3896 197.475V179.555H97.7688V194.403H105.961V197.475H94.3896ZM114.474 197.833C112.256 197.833 110.498 197.219 109.201 195.99C107.904 194.744 107.255 192.969 107.255 190.665V186.364C107.255 184.06 107.904 182.294 109.201 181.065C110.498 179.819 112.256 179.196 114.474 179.196C116.676 179.196 118.374 179.802 119.569 181.014C120.78 182.208 121.386 183.855 121.386 185.955V186.108H118.058V185.852C118.058 184.794 117.76 183.924 117.162 183.241C116.582 182.558 115.686 182.217 114.474 182.217C113.28 182.217 112.341 182.584 111.658 183.318C110.976 184.052 110.634 185.05 110.634 186.313V190.716C110.634 191.962 110.976 192.96 111.658 193.711C112.341 194.445 113.28 194.812 114.474 194.812C115.686 194.812 116.582 194.471 117.162 193.788C117.76 193.088 118.058 192.218 118.058 191.177V190.716H121.386V191.075C121.386 193.174 120.78 194.829 119.569 196.041C118.374 197.236 116.676 197.833 114.474 197.833ZM131.103 197.833C128.85 197.833 127.058 197.219 125.727 195.99C124.396 194.744 123.73 192.969 123.73 190.665V186.364C123.73 184.06 124.396 182.294 125.727 181.065C127.058 179.819 128.85 179.196 131.103 179.196C133.356 179.196 135.148 179.819 136.479 181.065C137.81 182.294 138.476 184.06 138.476 186.364V190.665C138.476 192.969 137.81 194.744 136.479 195.99C135.148 197.219 133.356 197.833 131.103 197.833ZM131.103 194.812C132.366 194.812 133.347 194.445 134.047 193.711C134.747 192.978 135.096 191.996 135.096 190.767V186.262C135.096 185.033 134.747 184.052 134.047 183.318C133.347 182.584 132.366 182.217 131.103 182.217C129.857 182.217 128.876 182.584 128.159 183.318C127.459 184.052 127.109 185.033 127.109 186.262V190.767C127.109 191.996 127.459 192.978 128.159 193.711C128.876 194.445 129.857 194.812 131.103 194.812ZM141.44 197.475V179.555H147.712L150.809 195.171H151.27L154.368 179.555H160.64V197.475H157.363V182.038H156.902L153.83 197.475H148.249L145.177 182.038H144.716V197.475H141.44ZM164.015 197.475V179.555H175.535V182.627H167.394V186.902H174.818V189.974H167.394V194.403H175.688V197.475H164.015ZM183.161 197.475L187.871 179.555H193.759L198.47 197.475H194.988L194.015 193.532H187.615L186.642 197.475H183.161ZM188.409 190.409H193.222L191.046 181.679H190.585L188.409 190.409ZM200.103 197.475V194.505H202.458V182.524H200.103V179.555H209.319C210.411 179.555 211.358 179.742 212.16 180.118C212.979 180.476 213.611 180.997 214.055 181.679C214.515 182.345 214.746 183.147 214.746 184.086V184.342C214.746 185.161 214.592 185.835 214.285 186.364C213.978 186.876 213.611 187.277 213.184 187.567C212.775 187.84 212.382 188.037 212.007 188.156V188.617C212.382 188.719 212.792 188.916 213.235 189.206C213.679 189.479 214.055 189.88 214.362 190.409C214.686 190.938 214.848 191.629 214.848 192.483V192.739C214.848 193.728 214.618 194.582 214.157 195.299C213.696 195.998 213.056 196.536 212.237 196.911C211.435 197.287 210.496 197.475 209.421 197.475H200.103ZM205.837 194.403H209.011C209.745 194.403 210.334 194.223 210.778 193.865C211.239 193.507 211.469 192.995 211.469 192.329V192.073C211.469 191.407 211.247 190.895 210.803 190.537C210.36 190.179 209.762 189.999 209.011 189.999H205.837V194.403ZM205.837 186.927H208.96C209.66 186.927 210.232 186.748 210.675 186.39C211.136 186.031 211.367 185.536 211.367 184.905V184.649C211.367 184 211.145 183.506 210.701 183.164C210.257 182.806 209.677 182.627 208.96 182.627H205.837V186.927ZM224.578 197.833C222.325 197.833 220.533 197.219 219.202 195.99C217.871 194.744 217.205 192.969 217.205 190.665V186.364C217.205 184.06 217.871 182.294 219.202 181.065C220.533 179.819 222.325 179.196 224.578 179.196C226.831 179.196 228.623 179.819 229.954 181.065C231.285 182.294 231.951 184.06 231.951 186.364V190.665C231.951 192.969 231.285 194.744 229.954 195.99C228.623 197.219 226.831 197.833 224.578 197.833ZM224.578 194.812C225.841 194.812 226.822 194.445 227.522 193.711C228.222 192.978 228.571 191.996 228.571 190.767V186.262C228.571 185.033 228.222 184.052 227.522 183.318C226.822 182.584 225.841 182.217 224.578 182.217C223.332 182.217 222.351 182.584 221.634 183.318C220.934 184.052 220.584 185.033 220.584 186.262V190.767C220.584 191.996 220.934 192.978 221.634 193.711C222.351 194.445 223.332 194.812 224.578 194.812ZM233.536 197.475L238.246 179.555H244.134L248.845 197.475H245.363L244.39 193.532H237.99L237.017 197.475H233.536ZM238.784 190.409H243.597L241.421 181.679H240.96L238.784 190.409ZM250.99 197.475V179.555H258.772C259.898 179.555 260.88 179.751 261.716 180.143C262.552 180.536 263.201 181.091 263.662 181.807C264.122 182.524 264.353 183.369 264.353 184.342V184.649C264.353 185.724 264.097 186.595 263.585 187.26C263.073 187.926 262.441 188.412 261.69 188.719V189.18C262.373 189.214 262.902 189.453 263.278 189.897C263.653 190.324 263.841 190.895 263.841 191.612V197.475H260.462V192.099C260.462 191.689 260.351 191.356 260.129 191.1C259.924 190.844 259.574 190.716 259.079 190.716H254.369V197.475H250.99ZM254.369 187.644H258.414C259.216 187.644 259.839 187.431 260.282 187.004C260.743 186.56 260.974 185.98 260.974 185.263V185.007C260.974 184.291 260.752 183.719 260.308 183.292C259.864 182.848 259.233 182.627 258.414 182.627H254.369V187.644ZM266.653 197.475V194.505H269.008V182.524H266.653V179.555H274.025C276.432 179.555 278.258 180.169 279.504 181.398C280.767 182.61 281.398 184.419 281.398 186.825V190.204C281.398 192.611 280.767 194.428 279.504 195.657C278.258 196.869 276.432 197.475 274.025 197.475H266.653ZM272.387 194.403H274.077C275.442 194.403 276.44 194.044 277.072 193.327C277.703 192.611 278.019 191.604 278.019 190.307V186.723C278.019 185.408 277.703 184.402 277.072 183.702C276.44 182.985 275.442 182.627 274.077 182.627H272.387V194.403ZM291.201 191.587V179.555H294.478V191.587H291.201ZM292.839 197.833C292.157 197.833 291.576 197.611 291.099 197.167C290.638 196.707 290.407 196.118 290.407 195.401C290.407 194.684 290.638 194.104 291.099 193.66C291.576 193.199 292.157 192.969 292.839 192.969C293.539 192.969 294.119 193.199 294.58 193.66C295.041 194.104 295.271 194.684 295.271 195.401C295.271 196.118 295.041 196.707 294.58 197.167C294.119 197.611 293.539 197.833 292.839 197.833ZM298.826 191.587V179.555H302.103V191.587H298.826ZM300.464 197.833C299.782 197.833 299.201 197.611 298.724 197.167C298.263 196.707 298.032 196.118 298.032 195.401C298.032 194.684 298.263 194.104 298.724 193.66C299.201 193.199 299.782 192.969 300.464 192.969C301.164 192.969 301.744 193.199 302.205 193.66C302.666 194.104 302.896 194.684 302.896 195.401C302.896 196.118 302.666 196.707 302.205 197.167C301.744 197.611 301.164 197.833 300.464 197.833Z" fill="#E0E0E0"/>
</g>
<path d="M97.6526 256.275V242.297H92.6126V240.595H104.574V242.297H99.5342V256.275H97.6526ZM106.969 256.275V240.595H108.85V247.561H116.197V240.595H118.079V256.275H116.197V249.263H108.85V256.275H106.969ZM121.669 256.275V240.595H123.55V256.275H121.669ZM132.357 256.588C131.222 256.588 130.206 256.387 129.31 255.983C128.414 255.58 127.705 254.975 127.182 254.169C126.674 253.348 126.421 252.325 126.421 251.1V250.63H128.28V251.1C128.28 252.399 128.661 253.37 129.422 254.012C130.184 254.639 131.162 254.953 132.357 254.953C133.581 254.953 134.514 254.677 135.157 254.124C135.799 253.572 136.12 252.877 136.12 252.041C136.12 251.459 135.97 250.996 135.672 250.652C135.388 250.309 134.985 250.033 134.462 249.823C133.939 249.599 133.327 249.405 132.625 249.241L131.461 248.95C130.55 248.711 129.743 248.42 129.041 248.076C128.339 247.733 127.787 247.285 127.384 246.732C126.995 246.165 126.801 245.441 126.801 244.559C126.801 243.678 127.018 242.917 127.451 242.275C127.899 241.633 128.519 241.14 129.31 240.796C130.117 240.453 131.042 240.281 132.088 240.281C133.148 240.281 134.096 240.468 134.933 240.841C135.784 241.199 136.448 241.737 136.926 242.454C137.419 243.156 137.665 244.044 137.665 245.119V246.06H135.806V245.119C135.806 244.358 135.642 243.746 135.313 243.283C135 242.82 134.559 242.476 133.992 242.252C133.439 242.028 132.805 241.916 132.088 241.916C131.057 241.916 130.229 242.148 129.601 242.611C128.974 243.059 128.661 243.701 128.661 244.537C128.661 245.09 128.795 245.538 129.064 245.881C129.333 246.225 129.713 246.508 130.206 246.732C130.699 246.941 131.289 247.128 131.976 247.292L133.141 247.583C134.051 247.778 134.865 248.046 135.582 248.39C136.314 248.718 136.896 249.174 137.329 249.756C137.762 250.324 137.979 251.07 137.979 251.996C137.979 252.922 137.747 253.729 137.285 254.415C136.822 255.102 136.165 255.64 135.313 256.028C134.477 256.402 133.491 256.588 132.357 256.588ZM151.825 256.588C150.69 256.588 149.675 256.387 148.779 255.983C147.883 255.58 147.174 254.975 146.651 254.169C146.143 253.348 145.889 252.325 145.889 251.1V250.63H147.748V251.1C147.748 252.399 148.129 253.37 148.891 254.012C149.652 254.639 150.631 254.953 151.825 254.953C153.05 254.953 153.983 254.677 154.625 254.124C155.267 253.572 155.588 252.877 155.588 252.041C155.588 251.459 155.439 250.996 155.14 250.652C154.857 250.309 154.454 250.033 153.931 249.823C153.408 249.599 152.796 249.405 152.094 249.241L150.929 248.95C150.018 248.711 149.212 248.42 148.51 248.076C147.808 247.733 147.256 247.285 146.852 246.732C146.464 246.165 146.27 245.441 146.27 244.559C146.27 243.678 146.487 242.917 146.92 242.275C147.368 241.633 147.987 241.14 148.779 240.796C149.585 240.453 150.511 240.281 151.556 240.281C152.617 240.281 153.565 240.468 154.401 240.841C155.252 241.199 155.917 241.737 156.395 242.454C156.888 243.156 157.134 244.044 157.134 245.119V246.06H155.275V245.119C155.275 244.358 155.111 243.746 154.782 243.283C154.468 242.82 154.028 242.476 153.46 242.252C152.908 242.028 152.273 241.916 151.556 241.916C150.526 241.916 149.697 242.148 149.07 242.611C148.443 243.059 148.129 243.701 148.129 244.537C148.129 245.09 148.264 245.538 148.532 245.881C148.801 246.225 149.182 246.508 149.675 246.732C150.168 246.941 150.758 247.128 151.444 247.292L152.609 247.583C153.52 247.778 154.334 248.046 155.051 248.39C155.783 248.718 156.365 249.174 156.798 249.756C157.231 250.324 157.448 251.07 157.448 251.996C157.448 252.922 157.216 253.729 156.753 254.415C156.29 255.102 155.633 255.64 154.782 256.028C153.946 256.402 152.96 256.588 151.825 256.588ZM160.344 256.275V240.595H162.225V256.275H160.344ZM169.665 256.275V242.297H164.625V240.595H176.587V242.297H171.547V256.275H169.665ZM178.981 256.275V240.595H188.635V242.297H180.863V247.539H188.008V249.241H180.863V254.572H188.747V256.275H178.981ZM197.356 256.275V240.595H199.238V256.275H197.356ZM208.044 256.588C206.909 256.588 205.894 256.387 204.998 255.983C204.102 255.58 203.392 254.975 202.87 254.169C202.362 253.348 202.108 252.325 202.108 251.1V250.63H203.967V251.1C203.967 252.399 204.348 253.37 205.11 254.012C205.871 254.639 206.849 254.953 208.044 254.953C209.269 254.953 210.202 254.677 210.844 254.124C211.486 253.572 211.807 252.877 211.807 252.041C211.807 251.459 211.658 250.996 211.359 250.652C211.076 250.309 210.672 250.033 210.15 249.823C209.627 249.599 209.015 249.405 208.313 249.241L207.148 248.95C206.237 248.711 205.431 248.42 204.729 248.076C204.027 247.733 203.474 247.285 203.071 246.732C202.683 246.165 202.489 245.441 202.489 244.559C202.489 243.678 202.705 242.917 203.138 242.275C203.586 241.633 204.206 241.14 204.998 240.796C205.804 240.453 206.73 240.281 207.775 240.281C208.836 240.281 209.784 240.468 210.62 240.841C211.471 241.199 212.136 241.737 212.614 242.454C213.106 243.156 213.353 244.044 213.353 245.119V246.06H211.494V245.119C211.494 244.358 211.329 243.746 211.001 243.283C210.687 242.82 210.247 242.476 209.679 242.252C209.127 242.028 208.492 241.916 207.775 241.916C206.745 241.916 205.916 242.148 205.289 242.611C204.662 243.059 204.348 243.701 204.348 244.537C204.348 245.09 204.482 245.538 204.751 245.881C205.02 246.225 205.401 246.508 205.894 246.732C206.386 246.941 206.976 247.128 207.663 247.292L208.828 247.583C209.739 247.778 210.553 248.046 211.27 248.39C212.001 248.718 212.584 249.174 213.017 249.756C213.45 250.324 213.666 251.07 213.666 251.996C213.666 252.922 213.435 253.729 212.972 254.415C212.509 255.102 211.852 255.64 211.001 256.028C210.165 256.402 209.179 256.588 208.044 256.588ZM248.259 285.275V269.595H250.141V285.275H248.259ZM253.728 285.275V269.595H257.379L262.845 284.087H263.136V269.595H264.995V285.275H261.344L255.901 270.759H255.587V285.275H253.728ZM194.088 314.588C193.655 314.588 193.289 314.446 192.99 314.163C192.707 313.879 192.565 313.513 192.565 313.065C192.565 312.617 192.707 312.251 192.99 311.967C193.289 311.684 193.655 311.542 194.088 311.542C194.536 311.542 194.902 311.684 195.186 311.967C195.469 312.251 195.611 312.617 195.611 313.065C195.611 313.513 195.469 313.879 195.186 314.163C194.902 314.446 194.536 314.588 194.088 314.588ZM203.733 314.275V298.595H209.736C210.677 298.595 211.513 298.781 212.245 299.155C212.991 299.513 213.581 300.028 214.014 300.7C214.447 301.372 214.664 302.186 214.664 303.142V303.433C214.664 304.374 214.44 305.188 213.992 305.875C213.559 306.547 212.969 307.062 212.222 307.42C211.476 307.779 210.647 307.958 209.736 307.958H205.614V314.275H203.733ZM205.614 306.255H209.534C210.535 306.255 211.326 306.009 211.909 305.516C212.491 305.009 212.782 304.299 212.782 303.388V303.164C212.782 302.253 212.491 301.551 211.909 301.059C211.341 300.551 210.55 300.297 209.534 300.297H205.614V306.255ZM217.186 314.275V298.595H223.525C224.496 298.595 225.347 298.766 226.079 299.11C226.825 299.438 227.408 299.916 227.826 300.543C228.244 301.156 228.453 301.895 228.453 302.761V303.007C228.453 304.038 228.207 304.852 227.714 305.449C227.221 306.046 226.639 306.45 225.967 306.659V306.972C226.504 306.987 226.945 307.166 227.288 307.51C227.647 307.838 227.826 308.339 227.826 309.011V314.275H225.967V309.235C225.967 308.787 225.84 308.443 225.586 308.204C225.347 307.965 224.981 307.846 224.488 307.846H219.067V314.275H217.186ZM219.067 306.143H223.346C224.376 306.143 225.168 305.897 225.72 305.404C226.288 304.897 226.571 304.195 226.571 303.299V303.142C226.571 302.246 226.295 301.551 225.743 301.059C225.19 300.551 224.391 300.297 223.346 300.297H219.067V306.143ZM231.317 314.275V298.595H240.971V300.297H233.199V305.539H240.344V307.241H233.199V312.572H241.083V314.275H231.317ZM249.158 314.588C248.023 314.588 247.008 314.387 246.112 313.983C245.216 313.58 244.506 312.975 243.984 312.169C243.476 311.348 243.222 310.325 243.222 309.1V308.63H245.081V309.1C245.081 310.399 245.462 311.37 246.224 312.012C246.985 312.639 247.963 312.953 249.158 312.953C250.383 312.953 251.316 312.677 251.958 312.124C252.6 311.572 252.921 310.877 252.921 310.041C252.921 309.459 252.772 308.996 252.473 308.652C252.19 308.309 251.786 308.033 251.264 307.823C250.741 307.599 250.129 307.405 249.427 307.241L248.262 306.95C247.351 306.711 246.545 306.42 245.843 306.076C245.141 305.733 244.588 305.285 244.185 304.732C243.797 304.165 243.603 303.441 243.603 302.559C243.603 301.678 243.819 300.917 244.252 300.275C244.7 299.633 245.32 299.14 246.112 298.796C246.918 298.453 247.844 298.281 248.889 298.281C249.95 298.281 250.898 298.468 251.734 298.841C252.585 299.199 253.25 299.737 253.728 300.454C254.22 301.156 254.467 302.044 254.467 303.119V304.06H252.608V303.119C252.608 302.358 252.443 301.746 252.115 301.283C251.801 300.82 251.361 300.476 250.793 300.252C250.241 300.028 249.606 299.916 248.889 299.916C247.859 299.916 247.03 300.148 246.403 300.611C245.776 301.059 245.462 301.701 245.462 302.537C245.462 303.09 245.596 303.538 245.865 303.881C246.134 304.225 246.515 304.508 247.008 304.732C247.5 304.941 248.09 305.128 248.777 305.292L249.942 305.583C250.853 305.778 251.667 306.046 252.384 306.39C253.115 306.718 253.698 307.174 254.131 307.756C254.564 308.324 254.78 309.07 254.78 309.996C254.78 310.922 254.549 311.729 254.086 312.415C253.623 313.102 252.966 313.64 252.115 314.028C251.279 314.402 250.293 314.588 249.158 314.588ZM262.896 314.588C261.761 314.588 260.745 314.387 259.849 313.983C258.953 313.58 258.244 312.975 257.721 312.169C257.213 311.348 256.96 310.325 256.96 309.1V308.63H258.819V309.1C258.819 310.399 259.2 311.37 259.961 312.012C260.723 312.639 261.701 312.953 262.896 312.953C264.12 312.953 265.053 312.677 265.696 312.124C266.338 311.572 266.659 310.877 266.659 310.041C266.659 309.459 266.509 308.996 266.211 308.652C265.927 308.309 265.524 308.033 265.001 307.823C264.479 307.599 263.866 307.405 263.164 307.241L262 306.95C261.089 306.711 260.282 306.42 259.58 306.076C258.879 305.733 258.326 305.285 257.923 304.732C257.535 304.165 257.34 303.441 257.34 302.559C257.34 301.678 257.557 300.917 257.99 300.275C258.438 299.633 259.058 299.14 259.849 298.796C260.656 298.453 261.581 298.281 262.627 298.281C263.687 298.281 264.635 298.468 265.472 298.841C266.323 299.199 266.987 299.737 267.465 300.454C267.958 301.156 268.204 302.044 268.204 303.119V304.06H266.345V303.119C266.345 302.358 266.181 301.746 265.852 301.283C265.539 300.82 265.098 300.476 264.531 300.252C263.978 300.028 263.344 299.916 262.627 299.916C261.596 299.916 260.768 300.148 260.14 300.611C259.513 301.059 259.2 301.701 259.2 302.537C259.2 303.09 259.334 303.538 259.603 303.881C259.872 304.225 260.252 304.508 260.745 304.732C261.238 304.941 261.828 305.128 262.515 305.292L263.68 305.583C264.591 305.778 265.404 306.046 266.121 306.39C266.853 306.718 267.435 307.174 267.868 307.756C268.301 308.324 268.518 309.07 268.518 309.996C268.518 310.922 268.287 311.729 267.824 312.415C267.361 313.102 266.704 313.64 265.852 314.028C265.016 314.402 264.031 314.588 262.896 314.588ZM82.4597 343.588C80.5931 343.588 79.0997 343.051 77.9797 341.975C76.8747 340.885 76.3221 339.302 76.3221 337.227V333.643C76.3221 331.567 76.8747 329.991 77.9797 328.916C79.0997 327.826 80.5931 327.281 82.4597 327.281C84.3413 327.281 85.8347 327.826 86.9397 328.916C88.0597 329.991 88.6197 331.567 88.6197 333.643V337.227C88.6197 339.302 88.0597 340.885 86.9397 341.975C85.8347 343.051 84.3413 343.588 82.4597 343.588ZM82.4597 341.908C83.8187 341.908 84.8715 341.505 85.6181 340.699C86.3648 339.877 86.7381 338.742 86.7381 337.294V333.575C86.7381 332.127 86.3648 330.999 85.6181 330.193C84.8715 329.372 83.8187 328.961 82.4597 328.961C81.1157 328.961 80.0704 329.372 79.3237 330.193C78.5771 330.999 78.2037 332.127 78.2037 333.575V337.294C78.2037 338.742 78.5771 339.877 79.3237 340.699C80.0704 341.505 81.1157 341.908 82.4597 341.908ZM91.7545 343.275V327.595H98.0937C99.0644 327.595 99.9156 327.766 100.647 328.11C101.394 328.438 101.976 328.916 102.395 329.543C102.813 330.156 103.022 330.895 103.022 331.761V332.007C103.022 333.038 102.775 333.852 102.283 334.449C101.79 335.046 101.207 335.45 100.535 335.659V335.972C101.073 335.987 101.513 336.166 101.857 336.51C102.215 336.838 102.395 337.339 102.395 338.011V343.275H100.535V338.235C100.535 337.787 100.408 337.443 100.155 337.204C99.9156 336.965 99.5497 336.846 99.0569 336.846H93.6361V343.275H91.7545ZM93.6361 335.143H97.9145C98.9449 335.143 99.7364 334.897 100.289 334.404C100.856 333.897 101.14 333.195 101.14 332.299V332.142C101.14 331.246 100.864 330.551 100.311 330.059C99.7588 329.551 98.9599 329.297 97.9145 329.297H93.6361V335.143ZM268.814 343.275V329.297H263.774V327.595H275.735V329.297H270.695V343.275H268.814ZM283.119 343.588C281.252 343.588 279.759 343.051 278.639 341.975C277.534 340.885 276.982 339.302 276.982 337.227V333.643C276.982 331.567 277.534 329.991 278.639 328.916C279.759 327.826 281.252 327.281 283.119 327.281C285.001 327.281 286.494 327.826 287.599 328.916C288.719 329.991 289.279 331.567 289.279 333.643V337.227C289.279 339.302 288.719 340.885 287.599 341.975C286.494 343.051 285.001 343.588 283.119 343.588ZM283.119 341.908C284.478 341.908 285.531 341.505 286.278 340.699C287.024 339.877 287.398 338.742 287.398 337.294V333.575C287.398 332.127 287.024 330.999 286.278 330.193C285.531 329.372 284.478 328.961 283.119 328.961C281.775 328.961 280.73 329.372 279.983 330.193C279.236 330.999 278.863 332.127 278.863 333.575V337.294C278.863 338.742 279.236 339.877 279.983 340.699C280.73 341.505 281.775 341.908 283.119 341.908ZM77.7136 372.275V358.297H72.6736V356.595H84.6352V358.297H79.5952V372.275H77.7136ZM92.0191 372.588C90.1525 372.588 88.6591 372.051 87.5391 370.975C86.4341 369.885 85.8815 368.302 85.8815 366.227V362.643C85.8815 360.567 86.4341 358.991 87.5391 357.916C88.6591 356.826 90.1525 356.281 92.0191 356.281C93.9007 356.281 95.3941 356.826 96.4991 357.916C97.6191 358.991 98.1791 360.567 98.1791 362.643V366.227C98.1791 368.302 97.6191 369.885 96.4991 370.975C95.3941 372.051 93.9007 372.588 92.0191 372.588ZM92.0191 370.908C93.3781 370.908 94.4309 370.505 95.1775 369.699C95.9242 368.877 96.2975 367.742 96.2975 366.294V362.575C96.2975 361.127 95.9242 359.999 95.1775 359.193C94.4309 358.372 93.3781 357.961 92.0191 357.961C90.6751 357.961 89.6298 358.372 88.8831 359.193C88.1365 359.999 87.7631 361.127 87.7631 362.575V366.294C87.7631 367.742 88.1365 368.877 88.8831 369.699C89.6298 370.505 90.6751 370.908 92.0191 370.908ZM106.779 372.588C105.615 372.588 104.584 372.349 103.688 371.871C102.807 371.379 102.113 370.662 101.605 369.721C101.112 368.78 100.866 367.615 100.866 366.227V362.643C100.866 360.567 101.418 358.991 102.523 357.916C103.629 356.826 105.114 356.281 106.981 356.281C108.833 356.281 110.244 356.789 111.215 357.804C112.185 358.82 112.671 360.179 112.671 361.881V361.993H110.811V361.836C110.811 361.09 110.677 360.425 110.408 359.843C110.139 359.26 109.721 358.805 109.154 358.476C108.586 358.133 107.862 357.961 106.981 357.961C105.652 357.961 104.614 358.372 103.867 359.193C103.121 359.999 102.747 361.134 102.747 362.598V366.271C102.747 367.735 103.121 368.877 103.867 369.699C104.614 370.505 105.659 370.908 107.003 370.908C108.318 370.908 109.281 370.535 109.893 369.788C110.52 369.042 110.834 368.049 110.834 366.809V366.428H106.085V364.815H112.671V372.275H110.968V370.572H110.655C110.49 370.901 110.259 371.222 109.96 371.535C109.662 371.849 109.258 372.103 108.751 372.297C108.243 372.491 107.586 372.588 106.779 372.588ZM121.567 372.588C120.402 372.588 119.372 372.349 118.476 371.871C117.595 371.379 116.9 370.662 116.393 369.721C115.9 368.78 115.653 367.615 115.653 366.227V362.643C115.653 360.567 116.206 358.991 117.311 357.916C118.416 356.826 119.902 356.281 121.769 356.281C123.62 356.281 125.032 356.789 126.002 357.804C126.973 358.82 127.458 360.179 127.458 361.881V361.993H125.599V361.836C125.599 361.09 125.465 360.425 125.196 359.843C124.927 359.26 124.509 358.805 123.941 358.476C123.374 358.133 122.65 357.961 121.769 357.961C120.44 357.961 119.402 358.372 118.655 359.193C117.908 359.999 117.535 361.134 117.535 362.598V366.271C117.535 367.735 117.908 368.877 118.655 369.699C119.402 370.505 120.447 370.908 121.791 370.908C123.105 370.908 124.068 370.535 124.681 369.788C125.308 369.042 125.621 368.049 125.621 366.809V366.428H120.873V364.815H127.458V372.275H125.756V370.572H125.442C125.278 370.901 125.046 371.222 124.748 371.535C124.449 371.849 124.046 372.103 123.538 372.297C123.03 372.491 122.373 372.588 121.567 372.588ZM130.889 372.275V356.595H132.77V370.572H140.7V372.275H130.889ZM143.117 372.275V356.595H152.771V358.297H144.999V363.539H152.144V365.241H144.999V370.572H152.883V372.275H143.117ZM161.492 372.275V356.595H170.967V358.297H163.374V363.561H170.362V365.263H163.374V372.275H161.492ZM179.256 372.588C178.091 372.588 177.076 372.379 176.21 371.961C175.344 371.543 174.672 370.923 174.194 370.102C173.716 369.266 173.477 368.243 173.477 367.033V356.595H175.336V367.055C175.336 368.34 175.68 369.303 176.367 369.945C177.053 370.587 178.017 370.908 179.256 370.908C180.496 370.908 181.459 370.587 182.146 369.945C182.833 369.303 183.176 368.34 183.176 367.055V356.595H185.058V367.033C185.058 368.243 184.819 369.266 184.341 370.102C183.863 370.923 183.184 371.543 182.303 371.961C181.436 372.379 180.421 372.588 179.256 372.588ZM188.508 372.275V356.595H190.389V370.572H198.319V372.275H188.508ZM200.736 372.275V356.595H202.617V370.572H210.547V372.275H200.736ZM218.183 372.588C217.048 372.588 216.033 372.387 215.137 371.983C214.241 371.58 213.531 370.975 213.009 370.169C212.501 369.348 212.247 368.325 212.247 367.1V366.63H214.106V367.1C214.106 368.399 214.487 369.37 215.249 370.012C216.01 370.639 216.988 370.953 218.183 370.953C219.408 370.953 220.341 370.677 220.983 370.124C221.625 369.572 221.946 368.877 221.946 368.041C221.946 367.459 221.797 366.996 221.498 366.652C221.215 366.309 220.811 366.033 220.289 365.823C219.766 365.599 219.154 365.405 218.452 365.241L217.287 364.95C216.376 364.711 215.57 364.42 214.868 364.076C214.166 363.733 213.613 363.285 213.21 362.732C212.822 362.165 212.628 361.441 212.628 360.559C212.628 359.678 212.844 358.917 213.277 358.275C213.725 357.633 214.345 357.14 215.137 356.796C215.943 356.453 216.869 356.281 217.914 356.281C218.975 356.281 219.923 356.468 220.759 356.841C221.61 357.199 222.275 357.737 222.753 358.454C223.245 359.156 223.492 360.044 223.492 361.119V362.06H221.633V361.119C221.633 360.358 221.468 359.746 221.14 359.283C220.826 358.82 220.386 358.476 219.818 358.252C219.266 358.028 218.631 357.916 217.914 357.916C216.884 357.916 216.055 358.148 215.428 358.611C214.801 359.059 214.487 359.701 214.487 360.537C214.487 361.09 214.621 361.538 214.89 361.881C215.159 362.225 215.54 362.508 216.033 362.732C216.525 362.941 217.115 363.128 217.802 363.292L218.967 363.583C219.878 363.778 220.692 364.046 221.409 364.39C222.14 364.718 222.723 365.174 223.156 365.756C223.589 366.324 223.805 367.07 223.805 367.996C223.805 368.922 223.574 369.729 223.111 370.415C222.648 371.102 221.991 371.64 221.14 372.028C220.304 372.402 219.318 372.588 218.183 372.588ZM232.369 372.588C230.502 372.588 229.016 372.051 227.911 370.975C226.806 369.885 226.253 368.302 226.253 366.227V362.643C226.253 360.567 226.806 358.991 227.911 357.916C229.016 356.826 230.502 356.281 232.369 356.281C234.22 356.281 235.639 356.796 236.625 357.827C237.625 358.857 238.125 360.268 238.125 362.06V362.172H236.266V361.993C236.266 360.813 235.945 359.85 235.303 359.103C234.676 358.342 233.698 357.961 232.369 357.961C231.04 357.961 230.002 358.372 229.255 359.193C228.508 359.999 228.135 361.134 228.135 362.598V366.271C228.135 367.735 228.508 368.877 229.255 369.699C230.002 370.505 231.04 370.908 232.369 370.908C233.698 370.908 234.676 370.535 235.303 369.788C235.945 369.027 236.266 368.056 236.266 366.876V366.518H238.125V366.809C238.125 368.601 237.625 370.012 236.625 371.043C235.639 372.073 234.22 372.588 232.369 372.588ZM241.073 372.275V356.595H247.412C248.383 356.595 249.234 356.766 249.966 357.11C250.713 357.438 251.295 357.916 251.713 358.543C252.131 359.156 252.34 359.895 252.34 360.761V361.007C252.34 362.038 252.094 362.852 251.601 363.449C251.108 364.046 250.526 364.45 249.854 364.659V364.972C250.392 364.987 250.832 365.166 251.176 365.51C251.534 365.838 251.713 366.339 251.713 367.011V372.275H249.854V367.235C249.854 366.787 249.727 366.443 249.473 366.204C249.234 365.965 248.868 365.846 248.376 365.846H242.955V372.275H241.073ZM242.955 364.143H247.233C248.264 364.143 249.055 363.897 249.608 363.404C250.175 362.897 250.459 362.195 250.459 361.299V361.142C250.459 360.246 250.183 359.551 249.63 359.059C249.078 358.551 248.279 358.297 247.233 358.297H242.955V364.143ZM255.205 372.275V356.595H264.859V358.297H257.086V363.539H264.232V365.241H257.086V370.572H264.971V372.275H255.205ZM267.826 372.275V356.595H277.481V358.297H269.708V363.539H276.854V365.241H269.708V370.572H277.593V372.275H267.826ZM280.448 372.275V356.595H284.099L289.565 371.087H289.856V356.595H291.715V372.275H288.064L282.621 357.759H282.307V372.275H280.448ZM153.956 401.275V385.595H157.54L161.706 400.087H161.998L166.164 385.595H169.748V401.275H167.934V386.827H167.62L163.476 401.275H160.228L156.084 386.827H155.77V401.275H153.956ZM179.027 401.588C177.16 401.588 175.667 401.051 174.547 399.975C173.442 398.885 172.889 397.302 172.889 395.227V391.643C172.889 389.567 173.442 387.991 174.547 386.916C175.667 385.826 177.16 385.281 179.027 385.281C180.909 385.281 182.402 385.826 183.507 386.916C184.627 387.991 185.187 389.567 185.187 391.643V395.227C185.187 397.302 184.627 398.885 183.507 399.975C182.402 401.051 180.909 401.588 179.027 401.588ZM179.027 399.908C180.386 399.908 181.439 399.505 182.185 398.699C182.932 397.877 183.305 396.742 183.305 395.294V391.575C183.305 390.127 182.932 388.999 182.185 388.193C181.439 387.372 180.386 386.961 179.027 386.961C177.683 386.961 176.638 387.372 175.891 388.193C175.144 388.999 174.771 390.127 174.771 391.575V395.294C174.771 396.742 175.144 397.877 175.891 398.699C176.638 399.505 177.683 399.908 179.027 399.908ZM187.014 401.275V399.595H189.209V387.275H187.014V385.595H193.129C195.19 385.595 196.78 386.117 197.9 387.163C199.035 388.208 199.603 389.813 199.603 391.979V394.891C199.603 397.071 199.035 398.684 197.9 399.729C196.78 400.759 195.19 401.275 193.129 401.275H187.014ZM191.091 399.572H193.129C194.652 399.572 195.802 399.199 196.579 398.452C197.355 397.706 197.743 396.548 197.743 394.98V391.911C197.743 390.314 197.355 389.149 196.579 388.417C195.802 387.685 194.652 387.319 193.129 387.319H191.091V399.572ZM202.606 401.275V385.595H212.26V387.297H204.488V392.539H211.633V394.241H204.488V399.572H212.372V401.275H202.606Z" fill="#E0E0E0"/>
<path d="M221.576 256.275V254.595H223.771V242.275H221.576V240.595H229.439C230.35 240.595 231.156 240.759 231.858 241.087C232.575 241.416 233.127 241.879 233.515 242.476C233.919 243.059 234.12 243.746 234.12 244.537V244.716C234.12 245.448 233.978 246.053 233.695 246.531C233.411 246.994 233.075 247.359 232.687 247.628C232.298 247.882 231.918 248.069 231.544 248.188V248.502C231.918 248.591 232.306 248.771 232.709 249.039C233.112 249.293 233.448 249.659 233.717 250.137C234.001 250.615 234.143 251.22 234.143 251.951V252.175C234.143 253.027 233.934 253.766 233.515 254.393C233.112 255.005 232.552 255.476 231.835 255.804C231.134 256.118 230.327 256.275 229.416 256.275H221.576ZM225.653 254.572H229.215C230.2 254.572 230.954 254.341 231.477 253.878C232 253.415 232.261 252.788 232.261 251.996V251.795C232.261 251.003 232 250.376 231.477 249.913C230.954 249.45 230.2 249.219 229.215 249.219H225.653V254.572ZM225.653 247.516H229.282C230.178 247.516 230.895 247.292 231.432 246.844C231.97 246.381 232.239 245.777 232.239 245.03V244.806C232.239 244.044 231.97 243.439 231.432 242.991C230.91 242.529 230.193 242.297 229.282 242.297H225.653V247.516ZM237.125 256.275V240.595H246.779V242.297H239.006V247.539H246.152V249.241H239.006V254.572H246.891V256.275H237.125ZM254.966 256.588C253.831 256.588 252.815 256.387 251.919 255.983C251.023 255.58 250.314 254.975 249.791 254.169C249.284 253.348 249.03 252.325 249.03 251.1V250.63H250.889V251.1C250.889 252.399 251.27 253.37 252.031 254.012C252.793 254.639 253.771 254.953 254.966 254.953C256.19 254.953 257.124 254.677 257.766 254.124C258.408 253.572 258.729 252.877 258.729 252.041C258.729 251.459 258.58 250.996 258.281 250.652C257.997 250.309 257.594 250.033 257.071 249.823C256.549 249.599 255.937 249.405 255.235 249.241L254.07 248.95C253.159 248.711 252.353 248.42 251.651 248.076C250.949 247.733 250.396 247.285 249.993 246.732C249.605 246.165 249.411 245.441 249.411 244.559C249.411 243.678 249.627 242.917 250.06 242.275C250.508 241.633 251.128 241.14 251.919 240.796C252.726 240.453 253.652 240.281 254.697 240.281C255.757 240.281 256.706 240.468 257.542 240.841C258.393 241.199 259.058 241.737 259.535 242.454C260.028 243.156 260.275 244.044 260.275 245.119V246.06H258.415V245.119C258.415 244.358 258.251 243.746 257.923 243.283C257.609 242.82 257.169 242.476 256.601 242.252C256.049 242.028 255.414 241.916 254.697 241.916C253.667 241.916 252.838 242.148 252.211 242.611C251.583 243.059 251.27 243.701 251.27 244.537C251.27 245.09 251.404 245.538 251.673 245.881C251.942 246.225 252.323 246.508 252.815 246.732C253.308 246.941 253.898 247.128 254.585 247.292L255.75 247.583C256.661 247.778 257.475 248.046 258.191 248.39C258.923 248.718 259.506 249.174 259.939 249.756C260.372 250.324 260.588 251.07 260.588 251.996C260.588 252.922 260.357 253.729 259.894 254.415C259.431 255.102 258.774 255.64 257.923 256.028C257.086 256.402 256.101 256.588 254.966 256.588ZM266.659 256.275V242.297H261.619V240.595H273.58V242.297H268.54V256.275H266.659ZM100.581 285.275V269.595H110.235V271.297H102.463V276.539H109.608V278.241H102.463V283.572H110.347V285.275H100.581ZM112.128 285.275L117.19 277.367L112.195 269.595H114.413L118.4 276.068H118.691L122.701 269.595H124.896L119.923 277.367L124.985 285.275H122.79L118.691 278.667H118.4L114.323 285.275H112.128ZM127.487 285.275V269.595H133.491C134.431 269.595 135.268 269.781 135.999 270.155C136.746 270.513 137.336 271.028 137.769 271.7C138.202 272.372 138.419 273.186 138.419 274.142V274.433C138.419 275.374 138.195 276.188 137.747 276.875C137.313 277.547 136.724 278.062 135.977 278.42C135.23 278.779 134.401 278.958 133.491 278.958H129.369V285.275H127.487ZM129.369 277.255H133.289C134.289 277.255 135.081 277.009 135.663 276.516C136.246 276.009 136.537 275.299 136.537 274.388V274.164C136.537 273.253 136.246 272.551 135.663 272.059C135.096 271.551 134.304 271.297 133.289 271.297H129.369V277.255ZM140.94 285.275V269.595H150.595V271.297H142.822V276.539H149.968V278.241H142.822V283.572H150.707V285.275H140.94ZM153.562 285.275V269.595H159.902C160.872 269.595 161.723 269.766 162.455 270.11C163.202 270.438 163.784 270.916 164.202 271.543C164.62 272.156 164.83 272.895 164.83 273.761V274.007C164.83 275.038 164.583 275.852 164.09 276.449C163.598 277.046 163.015 277.45 162.343 277.659V277.972C162.881 277.987 163.321 278.166 163.665 278.51C164.023 278.838 164.202 279.339 164.202 280.011V285.275H162.343V280.235C162.343 279.787 162.216 279.443 161.962 279.204C161.723 278.965 161.358 278.846 160.865 278.846H155.444V285.275H153.562ZM155.444 277.143H159.722C160.753 277.143 161.544 276.897 162.097 276.404C162.664 275.897 162.948 275.195 162.948 274.299V274.142C162.948 273.246 162.672 272.551 162.119 272.059C161.567 271.551 160.768 271.297 159.722 271.297H155.444V277.143ZM167.694 285.275V269.595H169.575V285.275H167.694ZM173.162 285.275V269.595H182.817V271.297H175.044V276.539H182.19V278.241H175.044V283.572H182.929V285.275H173.162ZM185.784 285.275V269.595H189.435L194.901 284.087H195.192V269.595H197.051V285.275H193.4L187.957 270.759H187.643V285.275H185.784ZM206.326 285.588C204.46 285.588 202.974 285.051 201.869 283.975C200.764 282.885 200.211 281.302 200.211 279.227V275.643C200.211 273.567 200.764 271.991 201.869 270.916C202.974 269.826 204.46 269.281 206.326 269.281C208.178 269.281 209.597 269.796 210.582 270.827C211.583 271.857 212.083 273.268 212.083 275.06V275.172H210.224V274.993C210.224 273.813 209.903 272.85 209.261 272.103C208.634 271.342 207.655 270.961 206.326 270.961C204.997 270.961 203.959 271.372 203.213 272.193C202.466 272.999 202.093 274.134 202.093 275.598V279.271C202.093 280.735 202.466 281.877 203.213 282.699C203.959 283.505 204.997 283.908 206.326 283.908C207.655 283.908 208.634 283.535 209.261 282.788C209.903 282.027 210.224 281.056 210.224 279.876V279.518H212.083V279.809C212.083 281.601 211.583 283.012 210.582 284.043C209.597 285.073 208.178 285.588 206.326 285.588ZM215.031 285.275V269.595H224.685V271.297H216.913V276.539H224.058V278.241H216.913V283.572H224.797V285.275H215.031ZM226.914 285.275V283.595H229.109V271.275H226.914V269.595H233.029C235.09 269.595 236.68 270.117 237.8 271.163C238.935 272.208 239.503 273.813 239.503 275.979V278.891C239.503 281.071 238.935 282.684 237.8 283.729C236.68 284.759 235.09 285.275 233.029 285.275H226.914ZM230.991 283.572H233.029C234.552 283.572 235.702 283.199 236.479 282.452C237.255 281.706 237.643 280.548 237.643 278.98V275.911C237.643 274.314 237.255 273.149 236.479 272.417C235.702 271.685 234.552 271.319 233.029 271.319H230.991V283.572ZM59.4815 314.275V298.595H69.3375V301.283H62.4383V305.068H68.7999V307.756H62.4383V314.275H59.4815ZM77.4952 314.588C76.2109 314.588 75.1058 314.357 74.18 313.894C73.269 313.416 72.5672 312.744 72.0744 311.878C71.5965 310.997 71.3576 309.959 71.3576 308.764V298.595H74.3144V308.854C74.3144 309.81 74.5832 310.564 75.1208 311.116C75.6733 311.669 76.4648 311.945 77.4952 311.945C78.5256 311.945 79.3096 311.669 79.8472 311.116C80.3997 310.564 80.676 309.81 80.676 308.854V298.595H83.6328V308.764C83.6328 309.959 83.3864 310.997 82.8936 311.878C82.4157 312.744 81.7138 313.416 80.788 313.894C79.877 314.357 78.7794 314.588 77.4952 314.588ZM86.4972 314.275V298.595H89.454V311.587H96.622V314.275H86.4972ZM98.6378 314.275V298.595H101.595V311.587H108.763V314.275H98.6378ZM116.222 314.588C115.012 314.588 113.944 314.372 113.018 313.939C112.093 313.506 111.368 312.886 110.846 312.079C110.323 311.273 110.062 310.302 110.062 309.167V308.54H112.974V309.167C112.974 310.108 113.265 310.818 113.847 311.295C114.43 311.758 115.221 311.99 116.222 311.99C117.237 311.99 117.991 311.788 118.484 311.385C118.992 310.982 119.246 310.467 119.246 309.839C119.246 309.406 119.119 309.055 118.865 308.787C118.626 308.518 118.267 308.301 117.79 308.137C117.327 307.958 116.759 307.794 116.087 307.644L115.572 307.532C114.497 307.293 113.571 306.995 112.794 306.636C112.033 306.263 111.443 305.778 111.025 305.18C110.622 304.583 110.42 303.806 110.42 302.851C110.42 301.895 110.644 301.081 111.092 300.409C111.555 299.722 112.197 299.199 113.018 298.841C113.855 298.468 114.833 298.281 115.953 298.281C117.073 298.281 118.066 298.475 118.932 298.863C119.813 299.237 120.5 299.804 120.993 300.566C121.501 301.313 121.754 302.253 121.754 303.388V304.06H118.842V303.388C118.842 302.791 118.723 302.313 118.484 301.955C118.26 301.581 117.931 301.313 117.498 301.148C117.065 300.969 116.55 300.879 115.953 300.879C115.057 300.879 114.392 301.051 113.959 301.395C113.541 301.723 113.332 302.179 113.332 302.761C113.332 303.149 113.429 303.478 113.623 303.747C113.832 304.015 114.138 304.239 114.542 304.419C114.945 304.598 115.46 304.755 116.087 304.889L116.602 305.001C117.722 305.24 118.693 305.546 119.514 305.919C120.351 306.293 121 306.786 121.463 307.398C121.926 308.01 122.158 308.794 122.158 309.75C122.158 310.706 121.911 311.549 121.418 312.281C120.941 312.998 120.254 313.565 119.358 313.983C118.477 314.387 117.431 314.588 116.222 314.588ZM130.321 314.588C128.38 314.588 126.842 314.051 125.707 312.975C124.572 311.885 124.004 310.332 124.004 308.316V304.553C124.004 302.537 124.572 300.991 125.707 299.916C126.842 298.826 128.38 298.281 130.321 298.281C132.248 298.281 133.733 298.811 134.779 299.871C135.839 300.917 136.369 302.358 136.369 304.195V304.329H133.457V304.105C133.457 303.179 133.196 302.418 132.673 301.82C132.165 301.223 131.381 300.924 130.321 300.924C129.276 300.924 128.455 301.245 127.857 301.887C127.26 302.53 126.961 303.403 126.961 304.508V308.361C126.961 309.451 127.26 310.325 127.857 310.982C128.455 311.624 129.276 311.945 130.321 311.945C131.381 311.945 132.165 311.646 132.673 311.049C133.196 310.437 133.457 309.675 133.457 308.764V308.361H136.369V308.675C136.369 310.511 135.839 311.96 134.779 313.02C133.733 314.066 132.248 314.588 130.321 314.588ZM138.778 314.275V298.595H145.588C146.574 298.595 147.432 298.766 148.164 299.11C148.896 299.453 149.463 299.939 149.866 300.566C150.27 301.193 150.471 301.932 150.471 302.783V303.052C150.471 303.993 150.247 304.755 149.799 305.337C149.351 305.919 148.799 306.345 148.142 306.614V307.017C148.739 307.047 149.202 307.256 149.53 307.644C149.859 308.018 150.023 308.518 150.023 309.145V314.275H147.066V309.571C147.066 309.212 146.969 308.921 146.775 308.697C146.596 308.473 146.29 308.361 145.857 308.361H141.735V314.275H138.778ZM141.735 305.673H145.274C145.976 305.673 146.521 305.486 146.91 305.113C147.313 304.725 147.514 304.217 147.514 303.59V303.366C147.514 302.739 147.32 302.238 146.932 301.865C146.544 301.477 145.991 301.283 145.274 301.283H141.735V305.673ZM152.932 314.275V298.595H163.012V301.283H155.888V305.023H162.384V307.711H155.888V311.587H163.146V314.275H152.932ZM165.335 314.275V298.595H175.415V301.283H168.291V305.023H174.787V307.711H168.291V311.587H175.549V314.275H165.335ZM177.738 314.275V298.595H183.36L186.474 312.259H186.877V298.595H189.789V314.275H184.167L181.053 300.611H180.65V314.275H177.738Z" fill="#4DE5FD"/>
<path d="M276.853 314.275V298.595H286.709V301.283H279.81V305.068H286.172V307.756H279.81V314.275H276.853ZM293.12 314.275V300.7H292.717L290.611 305.673H287.609L290.813 298.595H295.987V314.275H293.12ZM303.248 314.275V300.7H302.845L300.739 305.673H297.738L300.941 298.595H306.115V314.275H303.248Z" fill="#FFE72E"/>
<path d="M117.284 343.588C115.342 343.588 113.804 343.051 112.669 341.975C111.534 340.885 110.967 339.332 110.967 337.316V333.553C110.967 331.537 111.534 329.991 112.669 328.916C113.804 327.826 115.342 327.281 117.284 327.281C119.21 327.281 120.696 327.811 121.741 328.871C122.802 329.917 123.332 331.358 123.332 333.195V333.329H120.42V333.105C120.42 332.179 120.158 331.418 119.636 330.82C119.128 330.223 118.344 329.924 117.284 329.924C116.238 329.924 115.417 330.245 114.82 330.887C114.222 331.53 113.924 332.403 113.924 333.508V337.361C113.924 338.451 114.222 339.325 114.82 339.982C115.417 340.624 116.238 340.945 117.284 340.945C118.344 340.945 119.128 340.646 119.636 340.049C120.158 339.437 120.42 338.675 120.42 337.764V337.361H123.332V337.675C123.332 339.511 122.802 340.96 121.741 342.02C120.696 343.066 119.21 343.588 117.284 343.588ZM125.741 343.275V327.595H131.229L133.939 341.259H134.343L137.053 327.595H142.541V343.275H139.674V329.767H139.271L136.583 343.275H131.699L129.011 329.767H128.608V343.275H125.741ZM145.046 343.275V340.676H147.107V330.193H145.046V327.595H151.497C153.603 327.595 155.201 328.132 156.291 329.207C157.396 330.268 157.948 331.851 157.948 333.956V336.913C157.948 339.019 157.396 340.609 156.291 341.684C155.201 342.745 153.603 343.275 151.497 343.275H145.046ZM150.064 340.587H151.542C152.737 340.587 153.61 340.273 154.163 339.646C154.715 339.019 154.992 338.138 154.992 337.003V333.867C154.992 332.717 154.715 331.836 154.163 331.223C153.61 330.596 152.737 330.283 151.542 330.283H150.064V340.587ZM164.557 340.116V336.711H161.197V334.158H164.557V330.753H167.2V334.158H170.56V336.711H167.2V340.116H164.557ZM179.747 343.588C178.537 343.588 177.469 343.372 176.543 342.939C175.618 342.506 174.893 341.886 174.371 341.079C173.848 340.273 173.587 339.302 173.587 338.167V337.54H176.499V338.167C176.499 339.108 176.79 339.818 177.372 340.295C177.955 340.758 178.746 340.99 179.747 340.99C180.762 340.99 181.516 340.788 182.009 340.385C182.517 339.982 182.771 339.467 182.771 338.839C182.771 338.406 182.644 338.055 182.39 337.787C182.151 337.518 181.792 337.301 181.315 337.137C180.852 336.958 180.284 336.794 179.612 336.644L179.097 336.532C178.022 336.293 177.096 335.995 176.319 335.636C175.558 335.263 174.968 334.778 174.55 334.18C174.147 333.583 173.945 332.806 173.945 331.851C173.945 330.895 174.169 330.081 174.617 329.409C175.08 328.722 175.722 328.199 176.543 327.841C177.38 327.468 178.358 327.281 179.478 327.281C180.598 327.281 181.591 327.475 182.457 327.863C183.338 328.237 184.025 328.804 184.518 329.566C185.026 330.313 185.279 331.253 185.279 332.388V333.06H182.367V332.388C182.367 331.791 182.248 331.313 182.009 330.955C181.785 330.581 181.456 330.313 181.023 330.148C180.59 329.969 180.075 329.879 179.478 329.879C178.582 329.879 177.917 330.051 177.484 330.395C177.066 330.723 176.857 331.179 176.857 331.761C176.857 332.149 176.954 332.478 177.148 332.747C177.357 333.015 177.663 333.239 178.067 333.419C178.47 333.598 178.985 333.755 179.612 333.889L180.127 334.001C181.247 334.24 182.218 334.546 183.039 334.919C183.876 335.293 184.525 335.786 184.988 336.398C185.451 337.01 185.683 337.794 185.683 338.75C185.683 339.706 185.436 340.549 184.943 341.281C184.466 341.998 183.779 342.565 182.883 342.983C182.002 343.387 180.956 343.588 179.747 343.588ZM187.888 343.275V327.595H190.845V334.068H196.669V327.595H199.625V343.275H196.669V336.756H190.845V343.275H187.888ZM202.588 343.275V327.595H205.545V343.275H202.588ZM208.494 343.275V327.595H218.35V330.283H211.451V334.068H217.812V336.756H211.451V343.275H208.494ZM224.088 343.275V330.283H219.519V327.595H231.615V330.283H227.045V343.275H224.088ZM237.772 340.116V336.711H234.412V334.158H237.772V330.753H240.416V334.158H243.776V336.711H240.416V340.116H237.772ZM247.519 343.275V327.595H257.375V330.283H250.476V334.068H256.837V336.756H250.476V343.275H247.519Z" fill="#FFFD14"/>
<g filter="url(#filter3_d_66_3458)">
<path d="M419.144 210.531L405.824 209.681L399.2 221.797L412.52 222.646L419.144 210.531Z" fill="#101118"/>
<path d="M437.494 224.239L424.175 223.39L424.759 214.232C424.971 210.902 422.284 209.338 420.915 208.972L406.762 208.069L407.754 205.625L421.074 206.474C425.693 207.438 427.191 211.044 427.362 212.726C427.659 208.065 432.174 207.182 434.394 207.324L446.048 208.067L437.494 224.239Z" fill="#101118"/>
<path d="M449.803 201.62L436.483 200.77L442.275 188.601L456.427 189.504L449.803 201.62Z" fill="#101118"/>
<path d="M417.3 187.009L408.746 203.181L420.401 203.924C424.397 204.179 427.344 199.909 428.318 197.742C428.686 202.446 432.628 204.425 434.553 204.826L447.873 205.676L448.811 204.064L447.979 204.011L437.157 203.321C431.829 202.981 430.189 198.976 430.036 197.015L430.62 187.858L417.3 187.009Z" fill="#101118"/>
</g>
<defs>
<clipPath id="bgblur_0_66_3458_clip_path" transform="translate(40 -84.6746)"><path d="M184.082 125.875H10.474C8.64595 125.875 6.90513 126.656 5.69062 128.023L2.81659 131.256C1.77524 132.427 1.20001 133.94 1.20001 135.508V386.17C1.20001 388.016 1.99669 389.772 3.38558 390.987L44.1903 426.691C45.357 427.712 46.8545 428.275 48.4047 428.275H253.067C254.451 428.275 255.799 427.825 256.907 426.995L259.893 424.755C261.001 423.924 262.349 423.475 263.733 423.475H480.757C482.567 423.475 484.293 422.708 485.506 421.364L515.549 388.102C516.612 386.926 517.2 385.397 517.2 383.812V269.248C517.2 267.363 516.368 265.573 514.927 264.357L365.388 138.183C364.233 137.209 362.771 136.675 361.261 136.675H204.318C203.067 136.675 201.843 136.308 200.798 135.62L187.602 126.929C186.557 126.241 185.333 125.875 184.082 125.875Z"/>
</clipPath><clipPath id="bgblur_1_66_3458_clip_path" transform="translate(-288 -299.475)"><path d="M329.2 357.564V397.875C329.2 401.409 332.065 404.275 335.6 404.275H473.157C474.967 404.275 476.693 403.508 477.906 402.164L496.749 381.302C497.812 380.126 498.4 378.597 498.4 377.012V347.075C498.4 343.54 495.535 340.675 492 340.675H345.215C343.421 340.675 341.71 341.427 340.498 342.75L330.882 353.239C329.8 354.42 329.2 355.963 329.2 357.564Z"/>
</clipPath><filter id="filter2_d_66_3458" x="55.293" y="179.196" width="248.603" height="20.6367" filterUnits="userSpaceOnUse" color-interpolation-filters="sRGB">
<feFlood flood-opacity="0" result="BackgroundImageFix"/>
<feColorMatrix in="SourceAlpha" type="matrix" values="0 0 0 0 0 0 0 0 0 0 0 0 0 0 0 0 0 0 127 0" result="hardAlpha"/>
<feOffset dy="1"/>
<feGaussianBlur stdDeviation="0.5"/>
<feComposite in2="hardAlpha" operator="out"/>
<feColorMatrix type="matrix" values="0 0 0 0 1 0 0 0 0 0.905882 0 0 0 0 0.180392 0 0 0 1 0"/>
<feBlend mode="normal" in2="BackgroundImageFix" result="effect1_dropShadow_66_3458"/>
<feBlend mode="normal" in="SourceGraphic" in2="effect1_dropShadow_66_3458" result="shape"/>
</filter>
<filter id="filter3_d_66_3458" x="392.175" y="179.984" width="71.2761" height="51.2795" filterUnits="userSpaceOnUse" color-interpolation-filters="sRGB">
<feFlood flood-opacity="0" result="BackgroundImageFix"/>
<feColorMatrix in="SourceAlpha" type="matrix" values="0 0 0 0 0 0 0 0 0 0 0 0 0 0 0 0 0 0 127 0" result="hardAlpha"/>
<feOffset/>
<feGaussianBlur stdDeviation="3.51232"/>
<feComposite in2="hardAlpha" operator="out"/>
<feColorMatrix type="matrix" values="0 0 0 0 0 0 0 0 0 0 0 0 0 0 0 0 0 0 0.25 0"/>
<feBlend mode="normal" in2="BackgroundImageFix" result="effect1_dropShadow_66_3458"/>
<feBlend mode="normal" in="SourceGraphic" in2="effect1_dropShadow_66_3458" result="shape"/>
</filter>
</defs>
</svg>
