<svg width="660" height="75" viewBox="0 0 660 75" fill="none" xmlns="http://www.w3.org/2000/svg">
<g clip-path="url(#clip0_64_6305)">
<g opacity="0.8" filter="url(#filter0_d_64_6305)" data-figma-bg-blur-radius="4">
<path d="M69.222 8.74332C42.1352 44.0132 0 98.4297 0 98.4297H659.867C659.867 98.4297 621.494 43.0055 595.159 8.74332C537.223 -2.34151 128.663 -2.34151 69.222 8.74332Z" fill="#17292A" fill-opacity="0.6" shape-rendering="crispEdges"/>
<path d="M69.222 8.74332C42.1352 44.0132 0 98.4297 0 98.4297H659.867C659.867 98.4297 621.494 43.0055 595.159 8.74332C537.223 -2.34151 128.663 -2.34151 69.222 8.74332Z" stroke="#4DE5FD" stroke-width="2" shape-rendering="crispEdges"/>
</g>
<g filter="url(#filter1_d_64_6305)">
<path d="M136.327 37.2804H129.444V49H125.883V37.2804H119V33.7201H136.327V37.2804ZM153.89 37.2804H141.162V39.565H153.06V43.1254H141.162V45.4396H153.861V49H137.602V33.7201H153.89V37.2804ZM172.156 49H160.347C158.963 49 157.786 48.5451 156.817 47.6352C155.847 46.7055 155.363 45.5484 155.363 44.1638V38.5562C155.363 37.1717 155.847 36.0244 156.817 35.1145C157.786 34.1849 158.963 33.7201 160.347 33.7201H172.156V37.2804H160.347C159.398 37.2804 158.923 37.7057 158.923 38.5562V44.1638C158.923 45.0144 159.398 45.4396 160.347 45.4396H172.156V49ZM189.934 49H186.344V43.1254H177.206V49H173.646V33.7201H177.206V39.565H186.344V33.7201H189.934V49ZM224.459 44.2825C224.459 45.5682 224.073 46.666 223.302 47.5759C222.471 48.5253 221.423 49 220.157 49H206.984V45.4396H220.157C220.651 45.4396 220.899 45.0539 220.899 44.2825C220.899 43.5111 220.651 43.1254 220.157 43.1254H210.574C209.308 43.1254 208.259 42.6507 207.429 41.7012C206.637 40.8111 206.242 39.7233 206.242 38.4376C206.242 37.1519 206.647 36.0442 207.458 35.1145C208.269 34.1849 209.308 33.7201 210.574 33.7201H223.747V37.2804H210.574C210.079 37.2804 209.832 37.6661 209.832 38.4376C209.832 39.1892 210.079 39.565 210.574 39.565H220.157C221.423 39.565 222.471 40.0397 223.302 40.9892C224.073 41.899 224.459 42.9968 224.459 44.2825ZM243.272 37.2804H236.388V49H232.828V37.2804H225.944V33.7201H243.272V37.2804ZM263.268 49H259.707V44.1342H250.332V40.5738H259.707V38.4376C259.707 37.6661 259.45 37.2804 258.936 37.2804H248.848C248.354 37.2804 248.106 37.6661 248.106 38.4376V49H244.546V38.4376C244.546 37.1519 244.942 36.0442 245.733 35.1145C246.544 34.1849 247.582 33.7201 248.848 33.7201H258.936C260.222 33.7201 261.26 34.1849 262.051 35.1145C262.862 36.0442 263.268 37.1519 263.268 38.4376V49ZM281.534 49H269.726C268.341 49 267.164 48.5451 266.195 47.6352C265.226 46.7055 264.741 45.5484 264.741 44.1638V38.5562C264.741 37.1717 265.226 36.0244 266.195 35.1145C267.164 34.1849 268.341 33.7201 269.726 33.7201H281.534V37.2804H269.726C268.776 37.2804 268.302 37.7057 268.302 38.5562V44.1638C268.302 45.0144 268.776 45.4396 269.726 45.4396H281.534V49ZM315.259 44.2825C315.259 45.5682 314.873 46.666 314.102 47.5759C313.271 48.5253 312.223 49 310.957 49H297.784V45.4396H310.957C311.451 45.4396 311.699 45.0539 311.699 44.2825C311.699 43.5111 311.451 43.1254 310.957 43.1254H301.374C300.108 43.1254 299.059 42.6507 298.229 41.7012C297.437 40.8111 297.042 39.7233 297.042 38.4376C297.042 37.1519 297.447 36.0442 298.258 35.1145C299.069 34.1849 300.108 33.7201 301.374 33.7201H314.547V37.2804H301.374C300.879 37.2804 300.632 37.6661 300.632 38.4376C300.632 39.1892 300.879 39.565 301.374 39.565H310.957C312.223 39.565 313.271 40.0397 314.102 40.9892C314.873 41.899 315.259 42.9968 315.259 44.2825ZM345.272 37.2804H338.388V49H334.828V37.2804H327.944V33.7201H345.272V37.2804ZM362.331 49H360.76V34.2549L356.733 36.6765V33.3516L362.272 33.7201H362.331V49ZM400.457 44.2825C400.457 45.8548 399.982 47.2117 399.033 48.352C398.083 49.4922 396.787 50.0624 395.144 50.0624C393.502 50.0624 392.216 49.4922 391.286 48.352C390.357 47.2117 389.892 45.8548 389.892 44.2825C389.892 42.7102 390.357 41.3583 391.286 40.2268C392.216 39.0953 393.502 38.5295 395.144 38.5295C396.787 38.5295 398.083 39.0953 399.033 40.2268C399.982 41.3583 400.457 42.7102 400.457 44.2825ZM393.492 44.2825C393.492 45.0144 393.699 45.5682 394.114 45.944C394.528 46.3198 395.072 46.5077 395.744 46.5077C396.416 46.5077 396.95 46.3198 397.346 45.944C397.742 45.5682 397.94 45.0144 397.94 44.2825C397.94 43.5506 397.742 42.9968 397.346 42.621C396.95 42.2452 396.416 42.0573 395.744 42.0573C395.072 42.0573 394.528 42.2452 394.114 42.621C393.699 42.9968 393.492 43.5506 393.492 44.2825ZM433.189 49H429.629V44.1342H420.253V40.5738H429.629V38.4376C429.629 37.6661 429.372 37.2804 428.858 37.2804H418.77C418.276 37.2804 418.028 37.6661 418.028 38.4376V49H414.468V38.4376C414.468 37.1519 414.864 36.0442 415.655 35.1145C416.466 34.1849 417.504 33.7201 418.77 33.7201H428.858C430.144 33.7201 431.182 34.1849 431.973 35.1145C432.784 36.0442 433.189 37.1519 433.189 38.4376V49ZM477.444 37.2804H470.561V49H467V37.2804H460.116V33.7201H477.444V37.2804ZM514.909 44.2825C514.909 45.8548 514.434 47.2117 513.485 48.352C512.535 49.4922 511.239 50.0624 509.597 50.0624C507.954 50.0624 506.668 49.4922 505.738 48.352C504.809 47.2117 504.344 45.8548 504.344 44.2825C504.344 42.7102 504.809 41.3583 505.738 40.2268C506.668 39.0953 507.954 38.5295 509.597 38.5295C511.239 38.5295 512.535 39.0953 513.485 40.2268C514.434 41.3583 514.909 42.7102 514.909 44.2825ZM507.944 44.2825C507.944 45.0144 508.151 45.5682 508.566 45.944C508.98 46.3198 509.524 46.5077 510.196 46.5077C510.868 46.5077 511.402 46.3198 511.798 45.944C512.194 45.5682 512.392 45.0144 512.392 44.2825C512.392 43.5506 512.194 42.9968 511.798 42.621C511.402 42.2452 510.868 42.0573 510.196 42.0573C509.524 42.0573 508.98 42.2452 508.566 42.621C508.151 42.9968 507.944 43.5506 507.944 44.2825ZM547.641 49H544.081V44.1342H534.705V40.5738H544.081V38.4376C544.081 37.6661 543.824 37.2804 543.31 37.2804H533.222C532.728 37.2804 532.48 37.6661 532.48 38.4376V49H528.92V38.4376C528.92 37.1519 529.316 36.0442 530.107 35.1145C530.918 34.1849 531.956 33.7201 533.222 33.7201H543.31C544.596 33.7201 545.634 34.1849 546.425 35.1145C547.236 36.0442 547.641 37.1519 547.641 38.4376V49ZM585.767 44.2825C585.767 45.8548 585.292 47.2117 584.343 48.352C583.393 49.4922 582.097 50.0624 580.454 50.0624C578.812 50.0624 577.526 49.4922 576.596 48.352C575.667 47.2117 575.202 45.8548 575.202 44.2825C575.202 42.7102 575.667 41.3583 576.596 40.2268C577.526 39.0953 578.812 38.5295 580.454 38.5295C582.097 38.5295 583.393 39.0953 584.343 40.2268C585.292 41.3583 585.767 42.7102 585.767 44.2825ZM578.802 44.2825C578.802 45.0144 579.009 45.5682 579.424 45.944C579.838 46.3198 580.382 46.5077 581.054 46.5077C581.726 46.5077 582.26 46.3198 582.656 45.944C583.052 45.5682 583.25 45.0144 583.25 44.2825C583.25 43.5506 583.052 42.9968 582.656 42.621C582.26 42.2452 581.726 42.0573 581.054 42.0573C580.382 42.0573 579.838 42.2452 579.424 42.621C579.009 42.9968 578.802 43.5506 578.802 44.2825Z" fill="#4DE5FD"/>
</g>
</g>
<defs>
<filter id="filter0_d_64_6305" x="-10.9391" y="-9.47031" width="681.614" height="117.8" filterUnits="userSpaceOnUse" color-interpolation-filters="sRGB">
<feFlood flood-opacity="0" result="BackgroundImageFix"/>
<feColorMatrix in="SourceAlpha" type="matrix" values="0 0 0 0 0 0 0 0 0 0 0 0 0 0 0 0 0 0 127 0" result="hardAlpha"/>
<feOffset/>
<feGaussianBlur stdDeviation="4.45"/>
<feComposite in2="hardAlpha" operator="out"/>
<feColorMatrix type="matrix" values="0 0 0 0 0.232422 0 0 0 0 0.856395 0 0 0 0 0.885417 0 0 0 1 0"/>
<feBlend mode="normal" in2="BackgroundImageFix" result="effect1_dropShadow_64_6305"/>
<feBlend mode="normal" in="SourceGraphic" in2="effect1_dropShadow_64_6305" result="shape"/>
</filter>
<filter id="filter1_d_64_6305" x="100.88" y="15.6001" width="456.861" height="51.5199" filterUnits="userSpaceOnUse" color-interpolation-filters="sRGB">
<feFlood flood-opacity="0" result="BackgroundImageFix"/>
<feColorMatrix in="SourceAlpha" type="matrix" values="0 0 0 0 0 0 0 0 0 0 0 0 0 0 0 0 0 0 127 0" result="hardAlpha"/>
<feOffset/>
<feGaussianBlur stdDeviation="9.06"/>
<feComposite in2="hardAlpha" operator="out"/>
<feColorMatrix type="matrix" values="0 0 0 0 0.603922 0 0 0 0 0.941176 0 0 0 0 0.956863 0 0 0 0.7 0"/>
<feBlend mode="normal" in2="BackgroundImageFix" result="effect1_dropShadow_64_6305"/>
<feBlend mode="normal" in="SourceGraphic" in2="effect1_dropShadow_64_6305" result="shape"/>
</filter>
<clipPath id="clip0_64_6305">
<rect width="660" height="75" fill="white"/>
</clipPath>
</defs>
</svg>
