<svg width="882" height="292" viewBox="0 0 882 292" fill="none" xmlns="http://www.w3.org/2000/svg">
<g clip-path="url(#clip0_42_3669)">
<path opacity="0.8" d="M145.685 68.7129C114.884 16.3683 66.9728 -64.392 66.9728 -64.392H817.301C817.301 -64.392 773.668 17.8639 743.723 68.7129C677.845 85.1641 213.274 85.1641 145.685 68.7129Z" fill="#17292A" fill-opacity="0.6" stroke="#4DE5FD" stroke-width="2.27418"/>
<path opacity="0.8" d="M219.798 143.617C196.698 104.359 169 72.5 169 72.5L237.5 77.5L306 79.5L445.5 81L585 79.5L655.5 77L725 72C725 72 690.785 105.48 668.327 143.617C618.918 155.956 270.49 155.956 219.798 143.617Z" fill="#17292A" fill-opacity="0.6" stroke="#4DE5FD" stroke-width="1.70564"/>
<path opacity="0.8" d="M882.192 -33.6853C867.978 -8.45535 781.559 122.889 763.748 157.561C763.748 157.561 528.556 172.607 509.226 172.607L481.935 216.388L481.936 231.971M400.065 223.809V216.388L372.775 172.606C353.444 172.606 118.253 157.56 118.253 157.56C100.441 122.888 14.0222 -8.45571 -0.191406 -33.6857L883.5 -33.6857" stroke="#4DE5FD" stroke-width="2.27418"/>
<g filter="url(#filter0_d_42_3669)">
<path d="M522.926 276.94H351.019L329.622 254.385L351.019 230.962H522.926L544.324 254.963L522.926 276.94Z" stroke="#3EB9CC" stroke-width="2.31211" stroke-miterlimit="10"/>
<path d="M519.402 236.061L536.061 254.746L519.418 271.842H353.565L336.916 254.291L353.572 236.061H519.402Z" fill="#17292A" fill-opacity="0.6" stroke="#3EB9CC" stroke-width="1.16"/>
<path d="M332.216 241.021L347.269 225.27H416.411" stroke="#3EB9CC" stroke-width="2.74885" stroke-miterlimit="10"/>
<path d="M541.195 267L526.142 282.751H487" stroke="#3EB9CC" stroke-width="2.74885" stroke-miterlimit="10"/>
<path d="M399.494 282.747C399.494 283.712 398.712 284.494 397.747 284.494C396.782 284.494 396 283.712 396 282.747C396 281.782 396.782 281 397.747 281C398.712 281 399.494 281.782 399.494 282.747Z" fill="#00D5FF"/>
<path d="M404.578 282.747C404.578 283.712 403.796 284.494 402.83 284.494C401.865 284.494 401.083 283.712 401.083 282.747C401.083 281.782 401.865 281 402.83 281C403.796 281 404.578 281.782 404.578 282.747Z" fill="#00D5FF"/>
<path d="M409.661 282.747C409.661 283.712 408.879 284.494 407.914 284.494C406.949 284.494 406.167 283.712 406.167 282.747C406.167 281.782 406.949 281 407.914 281C408.879 281 409.661 281.782 409.661 282.747Z" fill="#00D5FF"/>
<path d="M384.494 282.747C384.494 283.712 383.712 284.494 382.747 284.494C381.782 284.494 381 283.712 381 282.747C381 281.782 381.782 281 382.747 281C383.712 281 384.494 281.782 384.494 282.747Z" fill="#00D5FF"/>
<path d="M389.578 282.747C389.578 283.712 388.796 284.494 387.83 284.494C386.865 284.494 386.083 283.712 386.083 282.747C386.083 281.782 386.865 281 387.83 281C388.796 281 389.578 281.782 389.578 282.747Z" fill="#00D5FF"/>
<path d="M394.661 282.747C394.661 283.712 393.879 284.494 392.914 284.494C391.949 284.494 391.167 283.712 391.167 282.747C391.167 281.782 391.949 281 392.914 281C393.879 281 394.661 281.782 394.661 282.747Z" fill="#00D5FF"/>
<path d="M374.494 282.747C374.494 283.712 373.712 284.494 372.747 284.494C371.782 284.494 371 283.712 371 282.747C371 281.782 371.782 281 372.747 281C373.712 281 374.494 281.782 374.494 282.747Z" fill="#00D5FF"/>
<path d="M379.578 282.747C379.578 283.712 378.796 284.494 377.83 284.494C376.865 284.494 376.083 283.712 376.083 282.747C376.083 281.782 376.865 281 377.83 281C378.796 281 379.578 281.782 379.578 282.747Z" fill="#00D5FF"/>
<path d="M384.661 282.747C384.661 283.712 383.879 284.494 382.914 284.494C381.949 284.494 381.167 283.712 381.167 282.747C381.167 281.782 381.949 281 382.914 281C383.879 281 384.661 281.782 384.661 282.747Z" fill="#00D5FF"/>
<path d="M364.494 282.747C364.494 283.712 363.712 284.494 362.747 284.494C361.782 284.494 361 283.712 361 282.747C361 281.782 361.782 281 362.747 281C363.712 281 364.494 281.782 364.494 282.747Z" fill="#00D5FF"/>
<path d="M369.578 282.747C369.578 283.712 368.796 284.494 367.83 284.494C366.865 284.494 366.083 283.712 366.083 282.747C366.083 281.782 366.865 281 367.83 281C368.796 281 369.578 281.782 369.578 282.747Z" fill="#00D5FF"/>
<path d="M374.661 282.747C374.661 283.712 373.879 284.494 372.914 284.494C371.949 284.494 371.167 283.712 371.167 282.747C371.167 281.782 371.949 281 372.914 281C373.879 281 374.661 281.782 374.661 282.747Z" fill="#00D5FF"/>
<path d="M354.494 282.747C354.494 283.712 353.712 284.494 352.747 284.494C351.782 284.494 351 283.712 351 282.747C351 281.782 351.782 281 352.747 281C353.712 281 354.494 281.782 354.494 282.747Z" fill="#00D5FF"/>
<path d="M359.578 282.747C359.578 283.712 358.796 284.494 357.83 284.494C356.865 284.494 356.083 283.712 356.083 282.747C356.083 281.782 356.865 281 357.83 281C358.796 281 359.578 281.782 359.578 282.747Z" fill="#00D5FF"/>
<path d="M364.661 282.747C364.661 283.712 363.879 284.494 362.914 284.494C361.949 284.494 361.167 283.712 361.167 282.747C361.167 281.782 361.949 281 362.914 281C363.879 281 364.661 281.782 364.661 282.747Z" fill="#00D5FF"/>
</g>
<g filter="url(#filter1_d_42_3669)">
<path d="M389.112 249.653L383.848 260H381.799L376.515 249.653H379.207L382.843 256.725L386.42 249.653H389.112ZM392.204 260H389.793V249.653H392.204V260ZM404.237 252.064H395.618V253.611H403.674V256.022H395.618V257.589H404.217V260H393.207V249.653H404.237V252.064ZM421.327 249.653L417.61 260H415.521L413.13 253.31L410.739 260H408.629L404.913 249.653H407.484L409.674 255.821L411.824 249.653H414.436L414.396 249.733L416.545 255.821L418.775 249.653H421.327ZM443.426 260H435.43C434.492 260 433.696 259.692 433.039 259.076C432.383 258.446 432.055 257.663 432.055 256.725V252.928C432.055 251.99 432.383 251.214 433.039 250.597C433.696 249.968 434.492 249.653 435.43 249.653H443.426V252.064H435.43C434.787 252.064 434.466 252.352 434.466 252.928V256.725C434.466 257.301 434.787 257.589 435.43 257.589H441.015V256.022H437.741V253.611H443.426V260ZM446.846 260H444.435V249.653H446.846V260ZM459.582 252.064H454.921V260H452.51V252.064H447.849V249.653H459.582V252.064ZM471.475 260H469.044V256.022H462.856V260H460.445V249.653H462.856V253.611H469.044V249.653H471.475V260ZM485.17 256.785C485.17 257.656 484.895 258.406 484.346 259.036C483.797 259.665 483.094 259.98 482.237 259.98H475.406C474.535 259.98 473.825 259.665 473.276 259.036C472.74 258.406 472.472 257.656 472.472 256.785V249.653H474.883V256.785C474.883 257.308 475.057 257.569 475.406 257.569H482.237C482.571 257.569 482.739 257.308 482.739 256.785V249.653H485.17V256.785ZM497.84 254.756C498.684 255.279 499.106 256.076 499.106 257.147C499.106 257.924 498.858 258.58 498.362 259.116C497.827 259.705 497.103 260 496.193 260H486.167V249.653H496.012C496.923 249.653 497.646 249.948 498.182 250.537C498.664 251.073 498.905 251.729 498.905 252.506C498.905 253.47 498.55 254.22 497.84 254.756ZM496.012 253.631C496.36 253.631 496.534 253.37 496.534 252.848C496.534 252.325 496.36 252.064 496.012 252.064H488.578V253.631H496.012ZM496.193 257.589C496.541 257.589 496.715 257.328 496.715 256.806C496.715 256.283 496.541 256.022 496.193 256.022H488.578V257.589H496.193Z" fill="#9AF0F4"/>
</g>
<foreignObject x="411.728" y="26.728" width="61.7007" height="44.5704"><div xmlns="http://www.w3.org/1999/xhtml" style="backdrop-filter:blur(3.14px);clip-path:url(#bgblur_1_42_3669_clip_path);height:100%;width:100%"></div></foreignObject><g data-figma-bg-blur-radius="6.272">
<path d="M435.13 53.8544H423.214L418 65.0264H429.917L435.13 53.8544Z" fill="url(#paint0_linear_42_3669)"/>
<path d="M452.261 65.0264H440.344V56.8336C440.344 53.8544 437.861 52.6131 436.62 52.3648H423.958L424.703 50.1304H436.62C440.791 50.7262 442.33 53.8544 442.578 55.344C442.578 51.1731 446.551 50.1304 448.537 50.1304H458.964L452.261 65.0264Z" fill="url(#paint1_linear_42_3669)"/>
<path d="M461.943 44.172H450.026L454.495 33H467.157L461.943 44.172Z" fill="url(#paint2_linear_42_3669)"/>
<path d="M432.151 33L425.448 47.896H435.875C439.45 47.896 441.834 43.9237 442.578 41.9376C443.174 46.1085 446.799 47.6477 448.537 47.896H460.454L461.198 46.4064H460.454H450.771C446.004 46.4064 444.316 42.9307 444.068 41.1928V33H432.151Z" fill="url(#paint3_linear_42_3669)"/>
</g>
<g opacity="0.8" filter="url(#filter3_d_42_3669)">
<path d="M491.955 47.9007C479.156 28.3345 459.248 -1.85339 459.248 -1.85339H766.026C766.026 -1.85339 747.895 28.8936 735.453 47.9007C708.079 54.0501 520.039 54.0501 491.955 47.9007Z" fill="#17292A" fill-opacity="0.6" shape-rendering="crispEdges"/>
<path d="M491.955 47.9007C479.156 28.3345 459.248 -1.85339 459.248 -1.85339H766.026C766.026 -1.85339 747.895 28.8936 735.453 47.9007C708.079 54.0501 520.039 54.0501 491.955 47.9007Z" stroke="#4DE5FD" stroke-width="0.955157" shape-rendering="crispEdges"/>
</g>
<g filter="url(#filter4_d_42_3669)">
<path d="M593.939 28.3533C593.939 29.529 593.528 30.5116 592.705 31.301C591.899 32.0737 590.908 32.46 589.732 32.46H579.73V24.2719H582.753V29.4367H589.732C590.504 29.4367 590.891 29.0755 590.891 28.3533V23.5916C590.891 22.8694 590.504 22.5083 589.732 22.5083H579.73V19.485H589.732C590.908 19.485 591.899 19.8797 592.705 20.6691C593.528 21.4417 593.939 22.4159 593.939 23.5916V28.3533ZM611.279 28.3533C611.279 29.529 610.868 30.5116 610.045 31.301C609.222 32.0737 608.222 32.46 607.047 32.46H599.438C598.262 32.46 597.263 32.0737 596.44 31.301C595.617 30.5116 595.205 29.529 595.205 28.3533V23.5916C595.205 22.4159 595.617 21.4417 596.44 20.6691C597.263 19.8797 598.262 19.485 599.438 19.485H607.047C608.222 19.485 609.222 19.8797 610.045 20.6691C610.868 21.4417 611.279 22.4159 611.279 23.5916V28.3533ZM608.256 28.3533V23.5916C608.256 22.8694 607.853 22.5083 607.047 22.5083H599.438C598.632 22.5083 598.229 22.8694 598.229 23.5916V28.3533C598.229 29.0755 598.632 29.4367 599.438 29.4367H607.047C607.853 29.4367 608.256 29.0755 608.256 28.3533ZM626.811 32.46H616.784C615.608 32.46 614.609 32.0737 613.786 31.301C612.963 30.5116 612.551 29.529 612.551 28.3533V23.5916C612.551 22.4159 612.963 21.4417 613.786 20.6691C614.609 19.8797 615.608 19.485 616.784 19.485H626.811V22.5083H616.784C615.977 22.5083 615.574 22.8694 615.574 23.5916V28.3533C615.574 29.0755 615.977 29.4367 616.784 29.4367H626.811V32.46ZM643.545 28.4541C643.545 29.5458 643.218 30.478 642.563 31.2506C641.857 32.0569 640.967 32.46 639.892 32.46H628.706V29.4367H639.892C640.312 29.4367 640.522 29.1091 640.522 28.4541C640.522 27.799 640.312 27.4715 639.892 27.4715H631.754C630.679 27.4715 629.789 27.0684 629.084 26.2622C628.412 25.5064 628.076 24.5826 628.076 23.4908C628.076 22.3991 628.42 21.4585 629.109 20.6691C629.798 19.8797 630.679 19.485 631.754 19.485H642.94V22.5083H631.754C631.334 22.5083 631.124 22.8358 631.124 23.4908C631.124 24.1291 631.334 24.4482 631.754 24.4482H639.892C640.967 24.4482 641.857 24.8513 642.563 25.6575C643.218 26.4302 643.545 27.3623 643.545 28.4541Z" fill="#9AF0F4"/>
</g>
<g opacity="0.8" filter="url(#filter5_d_42_3669)">
<path d="M156.955 47.9007C144.156 28.3345 124.248 -1.85339 124.248 -1.85339H431.026C431.026 -1.85339 412.895 28.8936 400.453 47.9007C373.079 54.0501 185.039 54.0501 156.955 47.9007Z" fill="#17292A" fill-opacity="0.6" shape-rendering="crispEdges"/>
<path d="M156.955 47.9007C144.156 28.3345 124.248 -1.85339 124.248 -1.85339H431.026C431.026 -1.85339 412.895 28.8936 400.453 47.9007C373.079 54.0501 185.039 54.0501 156.955 47.9007Z" stroke="#4DE5FD" stroke-width="0.955157" shape-rendering="crispEdges"/>
</g>
<g filter="url(#filter6_d_42_3669)">
<path d="M218.253 22.5083H212.408V32.46H209.385V22.5083H203.54V19.485H218.253V22.5083ZM233.167 22.5083H222.359V24.4482H232.461V27.4715H222.359V29.4367H233.142V32.46H219.335V19.485H233.167V22.5083ZM251.247 32.46H248.224V24.549L242.832 32.2332L237.441 24.549V32.46H234.417V19.485H237.592L242.832 26.9676L248.098 19.485H251.247V32.46ZM268.726 23.8688C268.726 25.0277 268.407 26.0187 267.769 26.8417C267.08 27.7655 266.173 28.2273 265.048 28.2273H255.524V32.46H252.501V19.485H265.048C266.173 19.485 267.08 19.9469 267.769 20.8707C268.407 21.7105 268.726 22.7098 268.726 23.8688ZM265.703 23.8688C265.703 22.9618 265.484 22.5083 265.048 22.5083H255.524V25.204H265.048C265.484 25.204 265.703 24.759 265.703 23.8688ZM282.969 32.46H269.994V19.485H273.017V29.4367H282.969V32.46ZM300.137 32.46H297.114V28.3281H289.153V25.3048H297.114V23.4908C297.114 22.8358 296.896 22.5083 296.459 22.5083H287.893C287.473 22.5083 287.263 22.8358 287.263 23.4908V32.46H284.24V23.4908C284.24 22.3991 284.576 21.4585 285.247 20.6691C285.936 19.8797 286.818 19.485 287.893 19.485H296.459C297.551 19.485 298.432 19.8797 299.104 20.6691C299.793 21.4585 300.137 22.3991 300.137 23.4908V32.46ZM316.102 22.5083H310.257V32.46H307.233V22.5083H301.388V19.485H316.102V22.5083ZM331.016 22.5083H320.207V24.4482H330.31V27.4715H320.207V29.4367H330.99V32.46H317.184V19.485H331.016V22.5083ZM347.735 28.4541C347.735 29.5458 347.408 30.478 346.753 31.2506C346.047 32.0569 345.157 32.46 344.082 32.46H332.896V29.4367H344.082C344.502 29.4367 344.712 29.1091 344.712 28.4541C344.712 27.799 344.502 27.4715 344.082 27.4715H335.944C334.869 27.4715 333.979 27.0684 333.274 26.2622C332.602 25.5064 332.266 24.5826 332.266 23.4908C332.266 22.3991 332.61 21.4585 333.299 20.6691C333.988 19.8797 334.869 19.485 335.944 19.485H347.131V22.5083H335.944C335.524 22.5083 335.314 22.8358 335.314 23.4908C335.314 24.1291 335.524 24.4482 335.944 24.4482H344.082C345.157 24.4482 346.047 24.8513 346.753 25.6575C347.408 26.4302 347.735 27.3623 347.735 28.4541Z" fill="#9AF0F4"/>
</g>
</g>
<defs>
<filter id="filter0_d_42_3669" x="324.043" y="223.896" width="225.861" height="68.5983" filterUnits="userSpaceOnUse" color-interpolation-filters="sRGB">
<feFlood flood-opacity="0" result="BackgroundImageFix"/>
<feColorMatrix in="SourceAlpha" type="matrix" values="0 0 0 0 0 0 0 0 0 0 0 0 0 0 0 0 0 0 127 0" result="hardAlpha"/>
<feOffset dy="4"/>
<feGaussianBlur stdDeviation="2"/>
<feComposite in2="hardAlpha" operator="out"/>
<feColorMatrix type="matrix" values="0 0 0 0 0 0 0 0 0 0 0 0 0 0 0 0 0 0 0.25 0"/>
<feBlend mode="normal" in2="BackgroundImageFix" result="effect1_dropShadow_42_3669"/>
<feBlend mode="normal" in="SourceGraphic" in2="effect1_dropShadow_42_3669" result="shape"/>
</filter>
<filter id="filter1_d_42_3669" x="368.515" y="241.653" width="138.591" height="26.3469" filterUnits="userSpaceOnUse" color-interpolation-filters="sRGB">
<feFlood flood-opacity="0" result="BackgroundImageFix"/>
<feColorMatrix in="SourceAlpha" type="matrix" values="0 0 0 0 0 0 0 0 0 0 0 0 0 0 0 0 0 0 127 0" result="hardAlpha"/>
<feOffset/>
<feGaussianBlur stdDeviation="4"/>
<feColorMatrix type="matrix" values="0 0 0 0 0.603922 0 0 0 0 0.941176 0 0 0 0 0.956863 0 0 0 0.7 0"/>
<feBlend mode="normal" in2="BackgroundImageFix" result="effect1_dropShadow_42_3669"/>
<feBlend mode="normal" in="SourceGraphic" in2="effect1_dropShadow_42_3669" result="shape"/>
</filter>
<clipPath id="bgblur_1_42_3669_clip_path" transform="translate(-411.728 -26.728)"><path d="M435.13 53.8544H423.214L418 65.0264H429.917L435.13 53.8544Z"/>
<path d="M452.261 65.0264H440.344V56.8336C440.344 53.8544 437.861 52.6131 436.62 52.3648H423.958L424.703 50.1304H436.62C440.791 50.7262 442.33 53.8544 442.578 55.344C442.578 51.1731 446.551 50.1304 448.537 50.1304H458.964L452.261 65.0264Z"/>
<path d="M461.943 44.172H450.026L454.495 33H467.157L461.943 44.172Z"/>
<path d="M432.151 33L425.448 47.896H435.875C439.45 47.896 441.834 43.9237 442.578 41.9376C443.174 46.1085 446.799 47.6477 448.537 47.896H460.454L461.198 46.4064H460.454H450.771C446.004 46.4064 444.316 42.9307 444.068 41.1928V33H432.151Z"/>
</clipPath><filter id="filter3_d_42_3669" x="454.111" y="-6.58138" width="317.002" height="63.8222" filterUnits="userSpaceOnUse" color-interpolation-filters="sRGB">
<feFlood flood-opacity="0" result="BackgroundImageFix"/>
<feColorMatrix in="SourceAlpha" type="matrix" values="0 0 0 0 0 0 0 0 0 0 0 0 0 0 0 0 0 0 127 0" result="hardAlpha"/>
<feOffset/>
<feGaussianBlur stdDeviation="2.12522"/>
<feComposite in2="hardAlpha" operator="out"/>
<feColorMatrix type="matrix" values="0 0 0 0 0.232422 0 0 0 0 0.856395 0 0 0 0 0.885417 0 0 0 1 0"/>
<feBlend mode="normal" in2="BackgroundImageFix" result="effect1_dropShadow_42_3669"/>
<feBlend mode="normal" in="SourceGraphic" in2="effect1_dropShadow_42_3669" result="shape"/>
</filter>
<filter id="filter4_d_42_3669" x="569.698" y="9.45299" width="83.8794" height="33.039" filterUnits="userSpaceOnUse" color-interpolation-filters="sRGB">
<feFlood flood-opacity="0" result="BackgroundImageFix"/>
<feColorMatrix in="SourceAlpha" type="matrix" values="0 0 0 0 0 0 0 0 0 0 0 0 0 0 0 0 0 0 127 0" result="hardAlpha"/>
<feOffset/>
<feGaussianBlur stdDeviation="5.016"/>
<feColorMatrix type="matrix" values="0 0 0 0 0.603922 0 0 0 0 0.941176 0 0 0 0 0.956863 0 0 0 0.7 0"/>
<feBlend mode="normal" in2="BackgroundImageFix" result="effect1_dropShadow_42_3669"/>
<feBlend mode="normal" in="SourceGraphic" in2="effect1_dropShadow_42_3669" result="shape"/>
</filter>
<filter id="filter5_d_42_3669" x="119.111" y="-6.58138" width="317.002" height="63.8222" filterUnits="userSpaceOnUse" color-interpolation-filters="sRGB">
<feFlood flood-opacity="0" result="BackgroundImageFix"/>
<feColorMatrix in="SourceAlpha" type="matrix" values="0 0 0 0 0 0 0 0 0 0 0 0 0 0 0 0 0 0 127 0" result="hardAlpha"/>
<feOffset/>
<feGaussianBlur stdDeviation="2.12522"/>
<feComposite in2="hardAlpha" operator="out"/>
<feColorMatrix type="matrix" values="0 0 0 0 0.232422 0 0 0 0 0.856395 0 0 0 0 0.885417 0 0 0 1 0"/>
<feBlend mode="normal" in2="BackgroundImageFix" result="effect1_dropShadow_42_3669"/>
<feBlend mode="normal" in="SourceGraphic" in2="effect1_dropShadow_42_3669" result="shape"/>
</filter>
<filter id="filter6_d_42_3669" x="193.508" y="9.45299" width="164.26" height="33.039" filterUnits="userSpaceOnUse" color-interpolation-filters="sRGB">
<feFlood flood-opacity="0" result="BackgroundImageFix"/>
<feColorMatrix in="SourceAlpha" type="matrix" values="0 0 0 0 0 0 0 0 0 0 0 0 0 0 0 0 0 0 127 0" result="hardAlpha"/>
<feOffset/>
<feGaussianBlur stdDeviation="5.016"/>
<feColorMatrix type="matrix" values="0 0 0 0 0.603922 0 0 0 0 0.941176 0 0 0 0 0.956863 0 0 0 0.7 0"/>
<feBlend mode="normal" in2="BackgroundImageFix" result="effect1_dropShadow_42_3669"/>
<feBlend mode="normal" in="SourceGraphic" in2="effect1_dropShadow_42_3669" result="shape"/>
</filter>
<linearGradient id="paint0_linear_42_3669" x1="442.578" y1="33" x2="442.578" y2="65.0264" gradientUnits="userSpaceOnUse">
<stop stop-color="#00F2FE"/>
<stop offset="0.384615" stop-color="#00FFDD"/>
<stop offset="1" stop-color="#32F6FF"/>
</linearGradient>
<linearGradient id="paint1_linear_42_3669" x1="442.578" y1="33" x2="442.578" y2="65.0264" gradientUnits="userSpaceOnUse">
<stop stop-color="#00F2FE"/>
<stop offset="0.384615" stop-color="#00FFDD"/>
<stop offset="1" stop-color="#32F6FF"/>
</linearGradient>
<linearGradient id="paint2_linear_42_3669" x1="442.578" y1="33" x2="442.578" y2="65.0264" gradientUnits="userSpaceOnUse">
<stop stop-color="#00F2FE"/>
<stop offset="0.384615" stop-color="#00FFDD"/>
<stop offset="1" stop-color="#32F6FF"/>
</linearGradient>
<linearGradient id="paint3_linear_42_3669" x1="442.578" y1="33" x2="442.578" y2="65.0264" gradientUnits="userSpaceOnUse">
<stop stop-color="#00F2FE"/>
<stop offset="0.384615" stop-color="#00FFDD"/>
<stop offset="1" stop-color="#32F6FF"/>
</linearGradient>
<clipPath id="clip0_42_3669">
<rect width="882" height="292" fill="white"/>
</clipPath>
</defs>
</svg>
